<svg width="63" height="62" viewBox="0 0 63 62" fill="none" xmlns="http://www.w3.org/2000/svg">
<path d="M38.0521 56.0222C38.1503 56.2668 38.3209 56.4755 38.5411 56.6203C38.7613 56.7651 39.0205 56.8392 39.284 56.8324C39.5474 56.8257 39.8025 56.7385 40.015 56.5826C40.2275 56.4267 40.3872 56.2095 40.4727 55.9602L57.2644 6.87684C57.3471 6.64794 57.3628 6.40022 57.3099 6.16268C57.2569 5.92515 57.1374 5.7076 56.9653 5.53551C56.7932 5.36342 56.5757 5.2439 56.3381 5.19093C56.1006 5.13796 55.8529 5.15374 55.624 5.23642L6.54063 22.0281C6.29133 22.1136 6.07415 22.2733 5.91824 22.4858C5.76232 22.6983 5.67514 22.9534 5.66839 23.2168C5.66164 23.4803 5.73565 23.7395 5.88048 23.9597C6.02531 24.1799 6.23403 24.3505 6.47863 24.4487L26.9645 32.6637C27.6121 32.923 28.2005 33.3107 28.6942 33.8035C29.1879 34.2963 29.5767 34.884 29.8371 35.5312L38.0521 56.0222Z" stroke="black" stroke-width="2" stroke-linecap="round" stroke-linejoin="round"/>
<path d="M56.957 5.54642L28.6953 33.8055" stroke="black" stroke-width="2" stroke-linecap="round" stroke-linejoin="round"/>
</svg>
