<svg width="500" height="500" viewBox="0 0 500 500" fill="none" xmlns="http://www.w3.org/2000/svg">
<path d="M77.6702 445.19C-17.5098 390.24 -17.5098 301.19 77.6702 246.19C172.85 191.19 327.16 191.24 422.33 246.19C517.5 301.14 517.51 390.19 422.33 445.19C327.15 500.19 172.84 500.14 77.6702 445.19Z" fill="#FAFAFA"/>
<path d="M385.981 165.96L380.461 162.78L358.091 152.65V165.56L250.601 227.62V246.99L256.121 250.17L358.091 191.3V197.85L363.611 201.03L385.981 165.96Z" fill="#005C8A"/>
<path opacity="0.35" d="M363.611 188.11L358.091 184.94V197.85L363.611 201.03V188.11Z" fill="white"/>
<path opacity="0.8" d="M358.091 165.56L363.611 168.74L256.121 230.8L250.601 227.62L358.091 165.56Z" fill="white"/>
<path d="M256.12 230.8V250.17L363.61 188.11V201.03L385.98 165.96L363.61 155.82V168.74L256.12 230.8Z" fill="#005C8A"/>
<path opacity="0.55" d="M256.12 230.8V250.17L363.61 188.11V201.03L385.98 165.96L363.61 155.82V168.74L256.12 230.8Z" fill="white"/>
<path opacity="0.8" d="M358.091 152.65L363.611 155.82L385.981 165.96L380.461 162.78L358.091 152.65Z" fill="white"/>
<path opacity="0.35" d="M363.611 155.82L358.091 152.65V165.56L363.611 168.74V155.82Z" fill="white"/>
<path opacity="0.35" d="M250.601 227.62L256.121 230.8V250.17L250.601 246.99V227.62Z" fill="white"/>
<path d="M356.54 123.09L351.02 119.92L328.65 109.78V122.7L221.16 184.76V204.13L226.68 207.31L328.65 148.44V154.99L334.17 158.17L356.54 123.09Z" fill="#005C8A"/>
<path opacity="0.7" d="M334.17 145.25L328.65 142.07V154.99L334.17 158.17V145.25Z" fill="white"/>
<path opacity="0.9" d="M328.65 122.7L334.17 125.88L226.68 187.94L221.16 184.76L328.65 122.7Z" fill="white"/>
<path d="M226.68 187.94V207.31L334.17 145.25V158.17L356.54 123.09L334.17 112.96V125.88L226.68 187.94Z" fill="#005C8A"/>
<path opacity="0.8" d="M226.68 187.94V207.31L334.17 145.25V158.17L356.54 123.09L334.17 112.96V125.88L226.68 187.94Z" fill="white"/>
<path opacity="0.9" d="M328.65 109.78L334.17 112.96L356.54 123.09L351.02 119.92L328.65 109.78Z" fill="white"/>
<path opacity="0.7" d="M334.17 112.96L328.65 109.78V122.7L334.17 125.88V112.96Z" fill="white"/>
<path opacity="0.35" d="M221.16 184.76L226.68 187.94V207.31L221.16 204.13V184.76Z" fill="white"/>
<path d="M140.32 459.38L150.53 465.27L259.43 402.39L266.24 406.32V392.57H242.41L249.22 396.5L140.32 459.38Z" fill="#005C8A"/>
<path d="M174.351 467.24L184.561 473.13L232.211 445.62L239.011 449.55V435.8H215.191L222.001 439.73L174.351 467.24Z" fill="#005C8A"/>
<path opacity="0.8" d="M140.32 459.38L150.53 465.27L259.43 402.39L266.24 406.32V392.57H242.41L249.22 396.5L140.32 459.38Z" fill="white"/>
<path opacity="0.8" d="M174.351 467.24L184.561 473.13L232.211 445.62L239.011 449.55V435.8H215.191L222.001 439.73L174.351 467.24Z" fill="white"/>
<path opacity="0.5" d="M181.141 23.46V77.65L206.741 35.77L181.141 23.46Z" fill="#005C8A"/>
<path opacity="0.35" d="M164.07 33.31V87.51L189.68 45.63L164.07 33.31Z" fill="#005C8A"/>
<path opacity="0.25" d="M147.011 43.16V97.36L172.611 55.48L147.011 43.16Z" fill="#005C8A"/>
<path d="M296.45 41.25C296.409 40.5602 296.206 39.8896 295.859 39.2922C295.512 38.6948 295.029 38.1871 294.45 37.81L292.71 36.81C292.091 36.4916 291.406 36.3255 290.71 36.3255C290.014 36.3255 289.329 36.4916 288.71 36.81L94 149.15C92.5469 150.092 91.3367 151.363 90.4679 152.861C89.599 154.359 89.0961 156.041 89 157.77V410.77C89.0413 411.461 89.2436 412.133 89.5909 412.732C89.9382 413.331 90.4207 413.841 91 414.22L92.74 415.22C93.36 415.534 94.0451 415.697 94.74 415.697C95.4349 415.697 96.12 415.534 96.74 415.22L294.46 301.1C295.039 300.723 295.522 300.215 295.869 299.618C296.216 299.02 296.419 298.35 296.46 297.66L296.45 41.25Z" fill="#37474F"/>
<path d="M121.45 180.65C121.448 180.813 121.411 180.973 121.34 181.12C121.283 181.253 121.19 181.368 121.07 181.45L120.5 181.78C120.463 181.812 120.415 181.829 120.365 181.829C120.316 181.829 120.268 181.812 120.23 181.78C120.151 181.685 120.112 181.563 120.12 181.44V169.59L117.86 173.53C117.839 173.595 117.803 173.654 117.757 173.704C117.71 173.754 117.654 173.794 117.59 173.82C117.545 173.837 117.496 173.84 117.449 173.827C117.402 173.814 117.361 173.788 117.33 173.75L117 173.28C116.932 173.162 116.904 173.025 116.92 172.89C116.941 172.725 116.992 172.566 117.07 172.42L120.07 167.18C120.129 167.073 120.207 166.979 120.3 166.9C120.369 166.843 120.443 166.793 120.52 166.75L121.09 166.42C121.128 166.388 121.176 166.371 121.225 166.371C121.275 166.371 121.323 166.388 121.36 166.42C121.44 166.515 121.479 166.637 121.47 166.76L121.45 180.65Z" fill="#E0E0E0"/>
<path d="M217.56 122.11C217.61 122.305 217.677 122.496 217.76 122.68C217.831 122.857 217.967 123 218.14 123.08C218.349 123.165 218.578 123.186 218.8 123.14C219.176 123.053 219.535 122.9 219.86 122.69C220.162 122.517 220.442 122.305 220.69 122.06C220.957 121.793 221.186 121.49 221.37 121.16C221.57 120.807 221.728 120.431 221.84 120.04C221.955 119.613 222.012 119.172 222.01 118.73C222.026 118.363 221.972 117.996 221.85 117.65C221.761 117.431 221.598 117.25 221.39 117.14C221.172 117.068 220.937 117.068 220.72 117.14C220.418 117.225 220.129 117.35 219.86 117.51L218.71 118.17C218.673 118.204 218.624 118.222 218.575 118.222C218.525 118.222 218.476 118.204 218.44 118.17C218.399 118.124 218.369 118.069 218.35 118.011C218.331 117.953 218.324 117.891 218.33 117.83V117C218.333 116.863 218.36 116.728 218.41 116.6L218.55 116.23L221.06 110.61L217.06 112.93C217.022 112.962 216.974 112.979 216.925 112.979C216.875 112.979 216.827 112.962 216.79 112.93C216.749 112.884 216.719 112.829 216.7 112.771C216.681 112.713 216.674 112.651 216.68 112.59V111.82C216.683 111.654 216.72 111.491 216.79 111.34C216.85 111.211 216.943 111.101 217.06 111.02L222.55 107.85C222.586 107.816 222.635 107.798 222.685 107.798C222.734 107.798 222.783 107.816 222.82 107.85C222.86 107.896 222.89 107.95 222.909 108.009C222.928 108.067 222.935 108.129 222.93 108.19V109C222.929 109.143 222.905 109.285 222.86 109.42C222.86 109.57 222.75 109.72 222.68 109.88L220.21 115.4C220.599 115.168 221.037 115.031 221.49 115C221.85 114.973 222.207 115.084 222.49 115.31C222.791 115.578 223.012 115.924 223.13 116.31C223.295 116.854 223.372 117.421 223.36 117.99C223.358 118.709 223.264 119.425 223.08 120.12C222.899 120.775 222.648 121.409 222.33 122.01C222.027 122.569 221.657 123.09 221.23 123.56C220.841 123.993 220.385 124.361 219.88 124.65C219.396 124.963 218.85 125.168 218.28 125.25C217.891 125.303 217.496 125.222 217.16 125.02C216.86 124.809 216.63 124.513 216.5 124.17C216.352 123.77 216.274 123.347 216.27 122.92C216.271 122.785 216.301 122.652 216.36 122.53C216.411 122.427 216.487 122.338 216.58 122.27L217.22 121.9C217.254 121.87 217.299 121.853 217.345 121.853C217.39 121.853 217.435 121.87 217.47 121.9C217.52 121.959 217.552 122.032 217.56 122.11Z" fill="#E0E0E0"/>
<path d="M269.08 96C269.043 96.0317 268.995 96.0491 268.945 96.0491C268.896 96.0491 268.848 96.0317 268.81 96C268.731 95.905 268.692 95.7833 268.7 95.66V92.66L264.32 95.19C264.284 95.221 264.238 95.238 264.19 95.238C264.143 95.238 264.097 95.221 264.06 95.19C264.018 95.1449 263.986 95.091 263.967 95.0323C263.948 94.9735 263.943 94.9113 263.95 94.85V94.08C263.938 93.9503 263.938 93.8197 263.95 93.69C263.988 93.533 264.038 93.3792 264.1 93.23L268.51 81.8C268.57 81.6213 268.651 81.4501 268.75 81.29C268.823 81.1609 268.926 81.0512 269.05 80.97L269.61 80.65C269.647 80.619 269.693 80.602 269.74 80.602C269.788 80.602 269.834 80.619 269.87 80.65C269.916 80.6952 269.952 80.75 269.974 80.8105C269.997 80.871 270.006 80.9357 270 81V90L271.19 89.3C271.229 89.27 271.276 89.2537 271.325 89.2537C271.374 89.2537 271.422 89.27 271.46 89.3C271.539 89.399 271.578 89.5237 271.57 89.65V90.42C271.567 90.5827 271.53 90.7429 271.46 90.89C271.403 91.0232 271.31 91.1376 271.19 91.22L270 91.91V94.91C270 95.0741 269.958 95.2356 269.88 95.38C269.83 95.514 269.739 95.6292 269.62 95.71L269.08 96ZM268.7 90.74V84.74L265.7 92.54L268.7 90.74Z" fill="#E0E0E0"/>
<path d="M96.1298 415.42C95.0255 415.787 93.8205 415.701 92.7798 415.18L91.0498 414.18C90.4691 413.805 89.9852 413.297 89.6377 412.7C89.2901 412.102 89.0887 411.43 89.0498 410.74V157.74C89.1124 156.015 89.615 154.336 90.5098 152.86L96.2198 156.18C95.3322 157.654 94.8333 159.33 94.7698 161.05V414C94.7698 415 95.3398 415.57 96.1298 415.42Z" fill="#263238"/>
<path opacity="0.9" d="M296.45 41.26V42C296.45 40.32 295.27 39.65 293.82 40.48L99.7498 152.48C98.2748 153.411 97.0603 154.701 96.2198 156.23L90.5098 152.91C91.3342 151.377 92.5353 150.08 93.9998 149.14C126.16 130.59 288.74 36.8 288.74 36.8C289.36 36.4863 290.045 36.3228 290.74 36.3228C291.435 36.3228 292.12 36.4863 292.74 36.8L294.47 37.8C295.05 38.1789 295.532 38.6902 295.876 39.2917C296.22 39.8932 296.417 40.5677 296.45 41.26Z" fill="white"/>
<path d="M99.8504 198.35C99.7224 198.354 99.5969 198.314 99.494 198.238C99.3912 198.162 99.317 198.053 99.2835 197.929C99.25 197.806 99.2591 197.674 99.3094 197.557C99.3596 197.439 99.448 197.341 99.5604 197.28L291.27 86.65C291.403 86.5736 291.561 86.5528 291.709 86.5922C291.857 86.6315 291.983 86.7278 292.06 86.86C292.134 86.9933 292.154 87.15 292.114 87.2972C292.075 87.4445 291.981 87.5709 291.85 87.65L100.13 198.28C100.044 198.327 99.9482 198.351 99.8504 198.35Z" fill="#455A64"/>
<path d="M145.19 169.54C145.039 169.54 144.894 169.48 144.787 169.373C144.68 169.266 144.62 169.121 144.62 168.97V146.97C144.619 146.894 144.633 146.819 144.661 146.749C144.689 146.678 144.731 146.614 144.784 146.56C144.837 146.506 144.9 146.464 144.97 146.434C145.04 146.405 145.115 146.39 145.19 146.39C145.344 146.39 145.492 146.451 145.6 146.56C145.709 146.669 145.77 146.816 145.77 146.97V168.97C145.768 169.122 145.705 169.267 145.597 169.374C145.488 169.48 145.342 169.54 145.19 169.54Z" fill="#455A64"/>
<path d="M195.61 140.42C195.459 140.42 195.314 140.36 195.207 140.253C195.1 140.146 195.04 140.001 195.04 139.85V117.85C195.058 117.711 195.127 117.583 195.233 117.49C195.339 117.397 195.474 117.346 195.615 117.346C195.756 117.346 195.892 117.397 195.997 117.49C196.103 117.583 196.172 117.711 196.19 117.85V139.85C196.19 139.926 196.175 140.001 196.146 140.07C196.116 140.14 196.074 140.204 196.02 140.257C195.966 140.31 195.902 140.351 195.831 140.38C195.761 140.408 195.686 140.421 195.61 140.42Z" fill="#455A64"/>
<path d="M246 111.32C245.849 111.32 245.704 111.26 245.597 111.153C245.49 111.046 245.43 110.901 245.43 110.75V88.75C245.419 88.6681 245.426 88.5849 245.45 88.5058C245.474 88.4268 245.514 88.3538 245.569 88.2917C245.623 88.2296 245.69 88.1798 245.765 88.1457C245.841 88.1116 245.922 88.094 246.005 88.094C246.087 88.094 246.169 88.1116 246.244 88.1457C246.319 88.1798 246.387 88.2296 246.441 88.2917C246.495 88.3538 246.536 88.4268 246.56 88.5058C246.584 88.5849 246.591 88.6681 246.58 88.75V110.75C246.58 110.826 246.565 110.901 246.535 110.97C246.506 111.04 246.463 111.104 246.409 111.157C246.355 111.21 246.291 111.251 246.221 111.28C246.151 111.308 246.076 111.321 246 111.32Z" fill="#455A64"/>
<path d="M296.45 40.64C296.45 37.83 294.45 36.7 292.01 38.11L99.1902 149.35C97.8959 150.196 96.8186 151.335 96.0456 152.674C95.2726 154.014 94.8254 155.516 94.7402 157.06V171.61L296.45 55.25V40.64Z" fill="#005C8A"/>
<path d="M89.0498 168.3V153.83C89.1112 152.254 89.5797 150.721 90.4098 149.38L96.0798 152.64C95.2598 153.973 94.8014 155.496 94.7498 157.06V171.61L89.0498 168.3Z" fill="#005C8A"/>
<path opacity="0.25" d="M89.0498 168.3V153.83C89.1112 152.254 89.5797 150.721 90.4098 149.38L96.0798 152.64C95.2598 153.973 94.8014 155.496 94.7498 157.06V171.61L89.0498 168.3Z" fill="black"/>
<path d="M292 38.11L99.2001 149.35C97.8923 150.168 96.8122 151.303 96.0602 152.65L90.4102 149.38C91.1494 148.053 92.2124 146.935 93.5002 146.13L286.32 34.89C286.785 34.5546 287.332 34.3522 287.903 34.3047C288.474 34.2571 289.047 34.3661 289.56 34.62C290.35 35.11 294.05 37.21 294.99 37.71C294.497 37.5292 293.967 37.4711 293.446 37.5408C292.925 37.6105 292.429 37.8058 292 38.11Z" fill="#005C8A"/>
<path opacity="0.3" d="M292 38.11L99.2001 149.35C97.8923 150.168 96.8122 151.303 96.0602 152.65L90.4102 149.38C91.1494 148.053 92.2124 146.935 93.5002 146.13L286.32 34.89C286.785 34.5546 287.332 34.3522 287.903 34.3047C288.474 34.2571 289.047 34.3661 289.56 34.62C290.35 35.11 294.05 37.21 294.99 37.71C294.497 37.5292 293.967 37.4711 293.446 37.5408C292.925 37.6105 292.429 37.8058 292 38.11Z" fill="white"/>
<path d="M270.19 57.49C271.51 56.72 272.58 57.34 272.58 58.87C272.533 59.6975 272.292 60.5024 271.877 61.2198C271.462 61.9371 270.884 62.5469 270.19 63C268.87 63.76 267.79 63.15 267.79 61.62C267.837 60.7914 268.079 59.9856 268.496 59.2681C268.913 58.5505 269.494 57.9413 270.19 57.49Z" fill="#FAFAFA"/>
<path d="M279.76 52C281.08 51.24 282.15 51.86 282.15 53.38C282.106 54.2108 281.866 55.0194 281.451 55.7403C281.036 56.4613 280.457 57.0744 279.76 57.53C278.43 58.29 277.36 57.67 277.36 56.15C277.404 55.3178 277.644 54.5077 278.061 53.7863C278.478 53.0649 279.061 52.4527 279.76 52Z" fill="#FAFAFA"/>
<path d="M289.32 46.44C290.65 45.68 291.72 46.29 291.72 47.82C291.675 48.6505 291.434 49.4586 291.017 50.1781C290.6 50.8977 290.018 51.5083 289.32 51.96C288 52.73 286.93 52.11 286.93 50.58C286.975 49.7508 287.215 48.9439 287.63 48.2246C288.046 47.5054 288.624 46.894 289.32 46.44Z" fill="#FAFAFA"/>
<path d="M307.69 94.12C307.648 93.4288 307.446 92.7569 307.099 92.1578C306.752 91.5588 306.269 91.0493 305.69 90.67L303.95 89.67C303.33 89.3563 302.645 89.1928 301.95 89.1928C301.255 89.1928 300.57 89.3563 299.95 89.67L105.47 201.93C104.017 202.872 102.806 204.143 101.938 205.641C101.069 207.139 100.566 208.821 100.47 210.55V417.36C100.512 418.051 100.714 418.723 101.062 419.322C101.409 419.92 101.891 420.43 102.47 420.81L104.21 421.81C104.83 422.124 105.515 422.287 106.21 422.287C106.905 422.287 107.59 422.124 108.21 421.81L305.71 307.81C306.288 307.43 306.771 306.92 307.118 306.322C307.465 305.723 307.668 305.051 307.71 304.36L307.69 94.12Z" fill="#E0E0E0"/>
<path d="M107.569 422.05C106.465 422.417 105.26 422.331 104.219 421.81L102.489 420.81C101.907 420.434 101.423 419.925 101.075 419.325C100.727 418.726 100.527 418.052 100.489 417.36V210.55C100.55 208.822 101.053 207.139 101.949 205.66L107.659 208.98C106.77 210.458 106.271 212.137 106.209 213.86V420.66C106.209 421.67 106.779 422.2 107.569 422.05Z" fill="#E0E0E0"/>
<path d="M307.69 94.12V94.86C307.69 93.18 306.51 92.5 305.06 93.34L111.19 205.24C109.713 206.165 108.498 207.452 107.66 208.98L102 205.66C102.831 204.133 104.044 202.848 105.52 201.93L300 89.66C300.62 89.3463 301.305 89.1828 302 89.1828C302.695 89.1828 303.38 89.3463 304 89.66L305.73 90.66C306.305 91.0429 306.782 91.5556 307.122 92.1565C307.463 92.7575 307.657 93.4301 307.69 94.12Z" fill="#F0F0F0"/>
<path d="M158.08 154C157.192 155.474 156.693 157.15 156.63 158.87V179L150.92 175.67V155.53C150.981 153.805 151.484 152.125 152.38 150.65L158.08 154Z" fill="#E0E0E0"/>
<path d="M206.809 126.41V127.15C206.809 125.47 205.629 124.79 204.179 125.63L161.609 150.22C160.133 151.145 158.917 152.432 158.079 153.96L152.359 150.64C153.194 149.116 154.406 147.831 155.879 146.91L199.099 121.91C199.719 121.596 200.405 121.433 201.099 121.433C201.794 121.433 202.479 121.596 203.099 121.91L204.829 122.91C205.414 123.293 205.899 123.811 206.244 124.42C206.588 125.029 206.782 125.711 206.809 126.41Z" fill="#F0F0F0"/>
<path d="M107.319 421.51C106.849 421.51 106.779 420.98 106.779 420.67V213.86C106.882 212.237 107.359 210.659 108.173 209.25C108.986 207.842 110.114 206.64 111.469 205.74L157.199 179.34V158.84C157.302 157.217 157.779 155.639 158.593 154.23C159.406 152.822 160.534 151.62 161.889 150.72L204.469 126.12C204.734 125.953 205.037 125.857 205.349 125.84C206.149 125.84 206.229 126.75 206.229 127.14V151L305.349 93.8C305.614 93.6334 305.917 93.537 306.229 93.52C307.029 93.52 307.109 94.43 307.109 94.82V304.37C307.071 304.959 306.898 305.532 306.603 306.043C306.308 306.555 305.9 306.992 305.409 307.32L107.909 421.32C107.733 421.434 107.529 421.5 107.319 421.51Z" fill="#FAFAFA"/>
<path d="M306.23 94.13C306.52 94.13 306.54 94.68 306.54 94.85V304.37C306.5 304.858 306.352 305.331 306.106 305.755C305.861 306.179 305.524 306.543 305.12 306.82L107.63 420.82L107.39 420.93C107.377 420.844 107.377 420.756 107.39 420.67V213.86C107.486 212.337 107.934 210.856 108.697 209.534C109.46 208.212 110.519 207.085 111.79 206.24L157.2 180L157.78 179.67V158.84C157.874 157.316 158.321 155.835 159.084 154.513C159.847 153.19 160.907 152.063 162.18 151.22L204.75 126.62C204.929 126.501 205.136 126.432 205.35 126.42C205.64 126.42 205.66 126.97 205.66 127.14V152L207.38 151L305.63 94.3C305.811 94.1861 306.017 94.1175 306.23 94.1M306.23 92.95C305.815 92.9611 305.41 93.0856 305.06 93.31L206.81 150V127.1C206.81 125.92 206.21 125.23 205.35 125.23C204.936 125.242 204.533 125.363 204.18 125.58L161.6 150.18C160.15 151.125 158.942 152.397 158.073 153.894C157.205 155.392 156.7 157.072 156.6 158.8V179L111.16 205.23C109.707 206.172 108.497 207.443 107.628 208.941C106.759 210.439 106.256 212.121 106.16 213.85V420.67C106.16 421.57 106.61 422.09 107.27 422.09C107.582 422.076 107.884 421.983 108.15 421.82L305.65 307.82C306.229 307.44 306.711 306.93 307.058 306.332C307.405 305.733 307.608 305.061 307.65 304.37V94.85C307.65 93.67 307.05 92.98 306.19 92.98L306.23 92.95Z" fill="#EBEBEB"/>
<path d="M123.909 220.09L196.909 177.97C197.549 177.59 198.069 177.86 198.069 178.55C198.041 178.94 197.921 179.318 197.72 179.654C197.518 179.989 197.241 180.272 196.909 180.48L123.909 222.61C123.259 222.98 122.739 222.72 122.739 222.02C122.767 221.628 122.887 221.249 123.091 220.914C123.294 220.578 123.575 220.296 123.909 220.09Z" fill="#005C8A"/>
<path d="M132.63 231.23C132.393 231.232 132.162 231.156 131.973 231.013C131.784 230.87 131.648 230.668 131.586 230.439C131.524 230.21 131.54 229.967 131.631 229.748C131.722 229.53 131.884 229.347 132.09 229.23L284.7 141.12C284.948 140.979 285.242 140.942 285.517 141.017C285.793 141.092 286.027 141.273 286.17 141.52C286.239 141.642 286.284 141.777 286.302 141.916C286.32 142.056 286.309 142.197 286.272 142.333C286.235 142.468 286.172 142.595 286.085 142.706C285.999 142.817 285.892 142.91 285.77 142.98L133.17 231.09C133.006 231.184 132.819 231.232 132.63 231.23Z" fill="#EBEBEB"/>
<path d="M132.63 241.3C132.393 241.302 132.162 241.226 131.973 241.083C131.784 240.94 131.648 240.738 131.586 240.509C131.524 240.28 131.54 240.037 131.631 239.818C131.722 239.6 131.884 239.417 132.09 239.3L284.7 151.19C284.822 151.12 284.957 151.074 285.096 151.056C285.236 151.038 285.378 151.047 285.514 151.084C285.65 151.121 285.778 151.184 285.889 151.27C286.001 151.356 286.095 151.463 286.165 151.585C286.235 151.707 286.281 151.842 286.299 151.982C286.317 152.121 286.307 152.263 286.271 152.399C286.234 152.535 286.171 152.663 286.085 152.774C285.999 152.886 285.892 152.98 285.77 153.05L133.17 241.16C133.006 241.254 132.819 241.302 132.63 241.3Z" fill="#EBEBEB"/>
<path d="M132.63 251.37C132.393 251.372 132.162 251.296 131.973 251.153C131.784 251.01 131.648 250.808 131.586 250.579C131.524 250.35 131.54 250.107 131.631 249.888C131.722 249.67 131.884 249.487 132.09 249.37L284.7 161.26C284.822 161.19 284.957 161.144 285.096 161.126C285.236 161.108 285.378 161.117 285.514 161.154C285.65 161.191 285.778 161.254 285.889 161.34C286.001 161.426 286.095 161.533 286.165 161.655C286.235 161.777 286.281 161.912 286.299 162.052C286.317 162.191 286.307 162.333 286.271 162.469C286.234 162.605 286.171 162.733 286.085 162.844C285.999 162.956 285.892 163.05 285.77 163.12L133.17 251.23C133.004 251.32 132.818 251.368 132.63 251.37Z" fill="#EBEBEB"/>
<path d="M119.55 333.19C119.352 333.183 119.16 333.116 119 333C118.836 332.906 118.699 332.771 118.605 332.608C118.51 332.444 118.46 332.259 118.46 332.07V271.7C118.46 271.511 118.51 271.326 118.605 271.162C118.699 270.999 118.836 270.864 119 270.77L289.05 172.59C289.213 172.498 289.398 172.45 289.586 172.451C289.774 172.452 289.958 172.502 290.12 172.596C290.283 172.69 290.418 172.824 290.513 172.986C290.607 173.148 290.658 173.332 290.66 173.52V233.94C290.657 234.128 290.606 234.313 290.511 234.475C290.417 234.638 290.282 234.774 290.12 234.87L120.08 333C119.925 333.113 119.741 333.179 119.55 333.19ZM120.62 272.32V330.26L288.52 233.32V175.38L120.62 272.32Z" fill="#EBEBEB"/>
<path d="M181.59 153.71C181.847 153.217 182.058 152.702 182.22 152.17C182.368 151.619 182.439 151.05 182.43 150.48C182.477 149.897 182.325 149.316 182 148.83C181.71 148.49 181.25 148.5 180.63 148.83C180.313 149.007 180.031 149.241 179.8 149.52C179.568 149.799 179.376 150.109 179.23 150.44C179.07 150.782 178.949 151.141 178.87 151.51C178.78 151.88 178.71 152.26 178.65 152.63C178.627 152.788 178.576 152.94 178.5 153.08C178.45 153.182 178.379 153.27 178.29 153.34L177.65 153.71C177.619 153.736 177.58 153.75 177.54 153.75C177.499 153.75 177.46 153.736 177.43 153.71C177.397 153.672 177.372 153.627 177.357 153.579C177.341 153.531 177.335 153.48 177.34 153.43C177.357 152.84 177.438 152.253 177.58 151.68C177.727 151.042 177.941 150.422 178.22 149.83C178.491 149.235 178.826 148.672 179.22 148.15C179.6 147.655 180.072 147.237 180.61 146.92C181.01 146.653 181.479 146.507 181.96 146.5C182.335 146.504 182.694 146.655 182.96 146.92C183.248 147.238 183.451 147.623 183.55 148.04C183.694 148.585 183.762 149.147 183.75 149.71C183.753 150.138 183.729 150.565 183.68 150.99C183.637 151.396 183.56 151.797 183.45 152.19C183.343 152.603 183.206 153.007 183.04 153.4C182.87 153.81 182.67 154.25 182.43 154.72L179.32 161L183.59 158.54C183.626 158.509 183.672 158.492 183.72 158.492C183.767 158.492 183.813 158.509 183.85 158.54C183.892 158.585 183.924 158.639 183.943 158.698C183.962 158.756 183.968 158.819 183.96 158.88V159.65C183.962 159.816 183.924 159.981 183.85 160.13C183.796 160.26 183.706 160.371 183.59 160.45L177.59 163.92C177.552 163.952 177.504 163.969 177.455 163.969C177.405 163.969 177.358 163.952 177.32 163.92C177.28 163.874 177.249 163.82 177.23 163.761C177.211 163.703 177.204 163.641 177.21 163.58V162.81C177.207 162.657 177.231 162.505 177.28 162.36C177.346 162.171 177.427 161.987 177.52 161.81L181.59 153.71Z" fill="#455A64"/>
<path d="M283.38 253.73V286.83C283.38 289.06 283.38 290.83 280.19 292.67L217.84 328.8C217.646 328.912 217.446 329.012 217.24 329.1C217.158 329.134 217.075 329.164 216.99 329.19C215.47 329.62 214.34 328.68 214.34 326.78V293.69C214.371 292.47 214.715 291.278 215.34 290.23C215.921 289.156 216.772 288.253 217.81 287.61L279.81 251.71C281.43 250.77 282.81 251.25 283.22 252.71C283.333 253.038 283.387 253.383 283.38 253.73Z" fill="#E0E0E0"/>
<path d="M223 290.81L283 256.08C284.053 255.547 285.216 255.27 286.395 255.27C287.575 255.27 288.738 255.547 289.79 256.08L290.53 256.53C291.52 257.173 292.342 258.041 292.932 259.063C293.521 260.085 293.86 261.232 293.92 262.41V294.41C293.92 296.58 293.92 298.32 290.85 300.06L230.53 335.06C229.48 335.592 228.318 335.87 227.14 335.87C225.962 335.87 224.801 335.592 223.75 335.06L223.01 334.61C222.02 333.968 221.195 333.1 220.604 332.078C220.014 331.056 219.673 329.909 219.61 328.73V296.73C219.666 295.545 220.002 294.39 220.591 293.361C221.181 292.332 222.006 291.457 223 290.81Z" fill="#005C8A"/>
<path d="M293.77 261.44C293.38 260 292.06 259.54 290.5 260.44L230.5 295.17C229.497 295.791 228.673 296.663 228.11 297.7L220.59 293.34C221.151 292.301 221.975 291.429 222.98 290.81L282.98 256.07C284.034 255.542 285.196 255.267 286.375 255.267C287.554 255.267 288.716 255.542 289.77 256.07L290.52 256.53C291.368 257.084 292.093 257.805 292.652 258.649C293.211 259.494 293.591 260.443 293.77 261.44Z" fill="#005C8A"/>
<path opacity="0.45" d="M293.77 261.44C293.38 260 292.06 259.54 290.5 260.44L230.5 295.17C229.497 295.791 228.673 296.663 228.11 297.7L220.59 293.34C221.151 292.301 221.975 291.429 222.98 290.81L282.98 256.07C284.034 255.542 285.196 255.267 286.375 255.267C287.554 255.267 288.716 255.542 289.77 256.07L290.52 256.53C291.368 257.084 292.093 257.805 292.652 258.649C293.211 259.494 293.591 260.443 293.77 261.44Z" fill="white"/>
<path d="M219.57 328.7C219.633 329.879 219.973 331.026 220.564 332.048C221.155 333.07 221.98 333.938 222.97 334.58L223.71 335.03C224.666 335.51 225.712 335.783 226.78 335.832C227.849 335.88 228.915 335.702 229.91 335.31C228.32 335.91 227.1 335 227.1 333.07V301.07C227.147 299.89 227.491 298.741 228.1 297.73L220.58 293.36C219.966 294.373 219.622 295.526 219.58 296.71L219.57 328.7Z" fill="#005C8A"/>
<path opacity="0.25" d="M219.57 328.7C219.633 329.879 219.973 331.026 220.564 332.048C221.155 333.07 221.98 333.938 222.97 334.58L223.71 335.03C224.666 335.51 225.712 335.783 226.78 335.832C227.849 335.88 228.915 335.702 229.91 335.31C228.32 335.91 227.1 335 227.1 333.07V301.07C227.147 299.89 227.491 298.741 228.1 297.73L220.58 293.36C219.966 294.373 219.622 295.526 219.58 296.71L219.57 328.7Z" fill="white"/>
<path d="M244.61 318.38C244.535 318.433 244.446 318.461 244.355 318.461C244.263 318.461 244.174 318.433 244.1 318.38C244.002 318.316 243.92 318.23 243.86 318.13L239.61 310.82V320.46C239.608 320.679 239.557 320.894 239.46 321.09C239.394 321.268 239.271 321.419 239.11 321.52L236.69 322.92C236.641 322.962 236.579 322.984 236.515 322.984C236.451 322.984 236.389 322.962 236.34 322.92C236.285 322.857 236.244 322.784 236.218 322.705C236.192 322.626 236.183 322.543 236.19 322.46V304.05C236.192 303.831 236.243 303.616 236.34 303.42C236.406 303.242 236.529 303.091 236.69 302.99L238.61 301.88C238.82 301.76 238.99 301.74 239.12 301.88C239.224 301.944 239.309 302.034 239.37 302.14L243.61 309.44V299.8C243.612 299.581 243.663 299.366 243.76 299.17C243.834 298.997 243.955 298.847 244.11 298.74L246.54 297.34C246.588 297.296 246.65 297.272 246.715 297.272C246.779 297.272 246.842 297.296 246.89 297.34C246.945 297.4 246.987 297.471 247.013 297.549C247.039 297.627 247.048 297.709 247.04 297.79V316.22C247.036 316.435 246.985 316.647 246.89 316.84C246.823 317.018 246.7 317.169 246.54 317.27L244.61 318.38Z" fill="#FAFAFA"/>
<path d="M258.91 305.56C258.959 305.518 259.021 305.496 259.085 305.496C259.149 305.496 259.211 305.518 259.26 305.56C259.314 305.623 259.356 305.696 259.382 305.775C259.407 305.854 259.417 305.937 259.41 306.02V309.02C259.408 309.239 259.357 309.454 259.26 309.65C259.194 309.828 259.071 309.979 258.91 310.08L250.13 315.15C250.082 315.194 250.02 315.218 249.955 315.218C249.89 315.218 249.828 315.194 249.78 315.15C249.725 315.09 249.683 315.019 249.657 314.941C249.631 314.863 249.622 314.781 249.63 314.7V296.29C249.632 296.071 249.683 295.856 249.78 295.66C249.854 295.487 249.975 295.337 250.13 295.23L258.76 290.23C258.812 290.191 258.875 290.17 258.94 290.17C259.005 290.17 259.068 290.191 259.12 290.23C259.222 290.361 259.272 290.525 259.26 290.69V293.69C259.256 293.907 259.209 294.122 259.12 294.32C259.047 294.497 258.921 294.647 258.76 294.75L253.06 298.04V301.12L258.36 298.06C258.409 298.018 258.471 297.996 258.535 297.996C258.599 297.996 258.661 298.018 258.71 298.06C258.764 298.121 258.805 298.192 258.831 298.27C258.857 298.347 258.867 298.429 258.86 298.51V301.51C258.858 301.725 258.807 301.938 258.71 302.13C258.638 302.307 258.516 302.46 258.36 302.57L253.06 305.62V308.82L258.91 305.56Z" fill="#FAFAFA"/>
<path d="M266.8 299.78L264.43 306.28C264.359 306.485 264.275 306.685 264.18 306.88C264.062 307.09 263.885 307.261 263.67 307.37L260.86 309C260.82 309.035 260.768 309.055 260.715 309.055C260.661 309.055 260.61 309.035 260.57 309C260.526 308.949 260.493 308.891 260.472 308.827C260.452 308.764 260.444 308.697 260.45 308.63C260.445 308.583 260.445 308.537 260.45 308.49C260.461 308.419 260.478 308.349 260.5 308.28L264.77 296.6L260.68 290.09C260.643 290.001 260.626 289.906 260.63 289.81C260.626 289.633 260.668 289.457 260.75 289.3C260.805 289.157 260.902 289.035 261.03 288.95L263.83 287.33C264.08 287.19 264.26 287.18 264.37 287.33L264.61 287.62L266.85 291.14L269 285L269.24 284.44C269.345 284.187 269.532 283.976 269.77 283.84L272.61 282.21C272.647 282.173 272.697 282.153 272.75 282.153C272.802 282.153 272.852 282.173 272.89 282.21C272.934 282.26 272.968 282.319 272.989 282.382C273.01 282.446 273.017 282.513 273.01 282.58C273.01 282.695 272.993 282.81 272.96 282.92L268.85 294.28L273.09 300.93C273.11 300.982 273.126 301.036 273.14 301.09V301.21C273.138 301.387 273.097 301.561 273.02 301.72C272.965 301.863 272.867 301.985 272.74 302.07L270 303.75C269.75 303.89 269.59 303.92 269.49 303.84C269.392 303.75 269.307 303.645 269.24 303.53L266.8 299.78Z" fill="#FAFAFA"/>
<path d="M284.23 275.54C284.278 275.496 284.34 275.472 284.405 275.472C284.47 275.472 284.532 275.496 284.58 275.54C284.635 275.6 284.677 275.671 284.703 275.749C284.729 275.827 284.738 275.909 284.73 275.99V278.99C284.727 279.205 284.675 279.417 284.58 279.61C284.517 279.79 284.393 279.942 284.23 280.04L281 282V296.63C280.997 296.845 280.945 297.057 280.85 297.25C280.783 297.428 280.66 297.579 280.5 297.68L278.08 299.08C278.029 299.122 277.966 299.146 277.9 299.146C277.834 299.146 277.77 299.122 277.72 299.08C277.667 299.016 277.628 298.943 277.603 298.864C277.579 298.785 277.571 298.702 277.58 298.62V284L274.32 285.89C274.27 285.934 274.206 285.959 274.14 285.959C274.074 285.959 274.009 285.934 273.96 285.89C273.907 285.829 273.867 285.757 273.843 285.68C273.819 285.602 273.811 285.521 273.82 285.44V282.44C273.818 282.225 273.866 282.013 273.96 281.82C274.035 281.642 274.16 281.489 274.32 281.38L284.23 275.54Z" fill="#FAFAFA"/>
<path d="M334.23 365.56V370.64C334.226 375.477 335.566 380.22 338.1 384.34C338.29 384.65 338.48 384.95 338.68 385.25L338.74 385.34L339.28 386.1C341.424 389.042 344.158 391.504 347.308 393.329C350.457 395.154 353.952 396.302 357.57 396.7H357.77H358.16C358.42 396.7 358.68 396.7 358.94 396.76H359.23C359.53 396.76 359.82 396.76 360.13 396.76H360.45C365.07 396.69 370.25 395.17 375.73 392L378 390.8C397.3 379.67 412.94 352.57 412.94 330.28V327.7C412.94 327.21 412.94 326.7 412.94 326.24V325.24C412.952 320.877 411.865 316.582 409.78 312.75V312.69C409.69 312.52 409.61 312.36 409.52 312.21C409.43 312.06 409.38 311.97 409.32 311.86C409.13 311.52 408.93 311.21 408.73 310.86C408.53 310.51 408.52 310.53 408.4 310.37L408 310C407.869 309.804 407.726 309.617 407.57 309.44C407.493 309.336 407.409 309.235 407.32 309.14C405.168 306.352 402.473 304.029 399.398 302.311C396.324 300.592 392.933 299.513 389.43 299.14C388.64 299.052 387.846 299.006 387.05 299H386.65C382.03 299.06 376.85 300.59 371.36 303.76L369.18 305C349.87 316.17 334.23 343.27 334.23 365.56ZM347.34 366.84C347.34 348.03 360.55 325.15 376.84 315.75C393.13 306.35 406.35 313.96 406.35 332.75C406.35 351.54 393.14 374.44 376.84 383.85C360.54 393.26 347.34 385.66 347.34 366.84Z" fill="#455A64"/>
<path d="M340.79 369.35V371.92C340.79 382.92 344.61 390.71 350.79 394.42L351.09 394.59C351.15 394.629 351.214 394.663 351.28 394.69L351.41 394.77L351.89 395.02C352.22 395.18 352.55 395.33 352.89 395.47L353.35 395.66L353.91 395.86C354.077 395.922 354.247 395.976 354.42 396.02C354.824 396.156 355.234 396.269 355.65 396.36C355.864 396.418 356.081 396.465 356.3 396.5C356.525 396.551 356.752 396.591 356.98 396.62L357.74 396.73H358.13C358.39 396.73 358.65 396.73 358.91 396.79H359.2C359.5 396.79 359.79 396.79 360.1 396.79C364.8 396.79 370.1 395.26 375.7 392.02L378 390.8C397.3 379.67 412.94 352.57 412.94 330.28V327.7C412.94 327.21 412.94 326.7 412.94 326.24C412.94 325.78 412.94 325.43 412.88 325.03V324.6C412.88 324.23 412.83 323.88 412.8 323.52V323.32C412.8 322.9 412.71 322.5 412.66 322.1C412.61 321.7 412.56 321.37 412.49 321.02C412.42 320.67 412.42 320.6 412.39 320.39C412.31 319.96 412.22 319.52 412.12 319.1C412.02 318.68 411.95 318.36 411.85 318C411.67 317.33 411.48 316.67 411.26 316C411.15 315.66 411.02 315.32 410.88 315C410.64 314.36 410.37 313.75 410.08 313.16L409.84 312.67C409.75 312.5 409.67 312.34 409.58 312.19C409.49 312.04 409.44 311.95 409.38 311.84C409.19 311.5 408.99 311.19 408.79 310.84C408.59 310.49 408.58 310.51 408.46 310.35L408 310C407.869 309.804 407.725 309.617 407.57 309.44C407.43 309.25 407.28 309.08 407.13 308.9C406.98 308.72 406.83 308.54 406.67 308.37C406.356 308.018 406.022 307.684 405.67 307.37C405.51 307.21 405.34 307.06 405.17 306.92C404.838 306.615 404.483 306.334 404.11 306.08C403.94 305.94 403.75 305.81 403.57 305.69L403 305.33L402.88 305.25C402.72 305.15 402.56 305.05 402.39 304.96C396.08 301.44 387.39 301.96 377.89 307.52L375.66 308.81C356.43 320 340.79 347.06 340.79 369.35ZM347.34 366.84C347.34 348.03 360.55 325.15 376.84 315.75C393.13 306.35 406.35 313.96 406.35 332.75C406.35 351.54 393.14 374.44 376.84 383.85C360.54 393.26 347.34 385.66 347.34 366.84Z" fill="#263238"/>
<path d="M354.9 379.05C359.57 384.61 367.65 385.4 376.84 380.05C391.33 371.69 403.07 351.36 403.07 334.63C403.07 327.16 400.72 321.63 396.83 318.63C399.54 321.83 401.12 326.63 401.12 332.74C401.12 349.46 389.38 369.8 374.89 378.17C366.88 382.83 359.71 382.82 354.9 379.05Z" fill="#005C8A"/>
<path opacity="0.2" d="M354.9 379.05C359.57 384.61 367.65 385.4 376.84 380.05C391.33 371.69 403.07 351.36 403.07 334.63C403.07 327.16 400.72 321.63 396.83 318.63C399.54 321.83 401.12 326.63 401.12 332.74C401.12 349.46 389.38 369.8 374.89 378.17C366.88 382.83 359.71 382.82 354.9 379.05Z" fill="black"/>
<path d="M347.34 366.85C347.34 385.66 360.55 393.29 376.84 383.85C393.13 374.41 406.35 351.56 406.35 332.75C406.35 313.94 393.14 306.31 376.84 315.75C360.54 325.19 347.34 348 347.34 366.85ZM350.62 364.95C350.62 348.23 362.36 327.89 376.84 319.53C391.32 311.17 403.07 317.95 403.07 334.67C403.07 351.39 391.33 371.73 376.84 380.09C362.35 388.45 350.62 381.68 350.62 365V364.95Z" fill="#005C8A"/>
<path d="M351.511 356.63C351.571 356.34 351.631 356.04 351.701 355.74L374.541 349.62L375.061 348.86L358.271 339.17C358.401 338.93 358.541 338.7 358.681 338.47L375.461 348.16L375.861 347.33L369.801 324.71L370.481 324.11L376.481 346.36L377.291 345.44L383.151 316.79C383.441 316.7 383.731 316.63 384.021 316.55L378.241 344.82L379.161 344.68L394.901 317.42C395.141 317.54 395.371 317.67 395.601 317.81L379.861 345.08L380.201 345.95L402.001 326.61C402.091 326.89 402.171 327.18 402.251 327.47L380.131 347.08L379.741 348.24L402.381 342.17C402.321 342.47 402.271 342.76 402.211 343.06L379.211 349.22L378.691 349.99L395.811 359.87L395.411 360.58L378.281 350.69L377.881 351.52L384.111 374.76L383.441 375.37L377.311 352.49L376.501 353.41L370.501 382.89L369.631 383.11L375.491 354L374.571 354.14L358.491 382C358.254 381.872 358.023 381.732 357.801 381.58L373.871 353.74L373.531 352.87L351.531 372.37C351.451 372.08 351.381 371.78 351.311 371.48L373.581 351.74L373.971 350.58L351.511 356.63Z" fill="#EBEBEB"/>
<path d="M365.49 354.63C365.49 357.71 366.55 359.89 368.28 360.93C368.82 361.25 369.28 361.46 369.72 361.74C370.68 362.332 371.807 362.595 372.93 362.49C373.169 362.467 373.406 362.431 373.64 362.38H373.86L374.42 362.23L374.81 362.12L375.21 361.96L375.8 361.72C376.143 361.564 376.476 361.391 376.8 361.2C382.23 358.06 386.64 350.44 386.64 344.2C386.64 343.83 386.64 343.46 386.59 343.11C386.59 342.99 386.59 342.87 386.54 342.75C386.521 342.535 386.491 342.322 386.45 342.11C386.45 341.96 386.39 341.82 386.35 341.68C386.31 341.54 386.27 341.35 386.23 341.2C386.19 341.05 386.12 340.9 386.07 340.75C386.02 340.6 385.98 340.5 385.92 340.38C385.859 340.224 385.785 340.074 385.7 339.93L385.55 339.66C385.462 339.503 385.362 339.352 385.25 339.21L385.12 339.04C385.001 338.884 384.871 338.737 384.73 338.6L384.63 338.51C384.478 338.368 384.317 338.234 384.15 338.11H384.09C383.968 338.02 383.841 337.936 383.71 337.86C383.23 337.58 382.78 337.37 382.41 337.14C380.62 336.02 378.11 336.14 375.32 337.73C369.9 340.74 365.49 348.36 365.49 354.63ZM377.83 356.68C377.02 355.1 376.83 351.99 377.83 350.81C378.83 349.63 378.83 351.36 381.36 350.03C381.955 349.734 382.529 349.4 383.08 349.03C382.15 351.25 379.79 355.23 378.08 356.55C378.001 356.601 377.917 356.644 377.83 356.68ZM371.91 344.57C371.942 344.475 371.978 344.381 372.02 344.29C372.58 343.11 376.24 340.05 378.45 339.29C378.306 341.942 377.396 344.495 375.83 346.64C375.652 346.327 375.393 346.068 375.08 345.89L373.57 345.03C373.435 344.96 373.294 344.9 373.15 344.85C372.748 344.713 372.332 344.619 371.91 344.57ZM382.05 338.9C383.208 340.303 383.813 342.082 383.75 343.9C383.54 345.77 380.4 347.65 378.46 347.96C378.54 346.96 379.79 346.54 380.61 343.57C381.29 341.11 381.23 339.26 382.05 338.9ZM370.28 359.65C370.245 359.614 370.215 359.574 370.19 359.53C369.41 358.3 372.43 354.12 374.44 352.53C374.189 353.453 374.189 354.427 374.44 355.35C374.97 357.29 376.11 358.2 375.08 359.14C374.34 359.8 372 360.1 370.28 359.65ZM368.28 355.65C368.334 353.119 368.902 350.625 369.95 348.32C370.264 347.812 370.748 347.432 371.316 347.249C371.884 347.066 372.499 347.091 373.05 347.32C373.341 347.556 373.559 347.868 373.681 348.221C373.803 348.575 373.824 348.955 373.74 349.32C373.23 350.84 372.38 349.86 370.24 352.71C369.44 353.75 368.8 354.84 368.29 355.6L368.28 355.65Z" fill="#E0E0E0"/>
<path opacity="0.2" d="M365.49 354.63C365.49 357.71 366.55 359.89 368.28 360.93C368.82 361.25 369.28 361.46 369.72 361.74C370.68 362.332 371.807 362.595 372.93 362.49C373.169 362.467 373.406 362.431 373.64 362.38H373.86L374.42 362.23L374.81 362.12L375.21 361.96L375.8 361.72C376.143 361.564 376.476 361.391 376.8 361.2C382.23 358.06 386.64 350.44 386.64 344.2C386.64 343.83 386.64 343.46 386.59 343.11C386.59 342.99 386.59 342.87 386.54 342.75C386.521 342.535 386.491 342.322 386.45 342.11C386.45 341.96 386.39 341.82 386.35 341.68C386.31 341.54 386.27 341.35 386.23 341.2C386.19 341.05 386.12 340.9 386.07 340.75C386.02 340.6 385.98 340.5 385.92 340.38C385.859 340.224 385.785 340.074 385.7 339.93L385.55 339.66C385.462 339.503 385.362 339.352 385.25 339.21L385.12 339.04C385.001 338.884 384.871 338.737 384.73 338.6L384.63 338.51C384.478 338.368 384.317 338.234 384.15 338.11H384.09C383.968 338.02 383.841 337.936 383.71 337.86C383.23 337.58 382.78 337.37 382.41 337.14C380.62 336.02 378.11 336.14 375.32 337.73C369.9 340.74 365.49 348.36 365.49 354.63ZM377.83 356.68C377.02 355.1 376.83 351.99 377.83 350.81C378.83 349.63 378.83 351.36 381.36 350.03C381.955 349.734 382.529 349.4 383.08 349.03C382.15 351.25 379.79 355.23 378.08 356.55C378.001 356.601 377.917 356.644 377.83 356.68ZM371.91 344.57C371.942 344.475 371.978 344.381 372.02 344.29C372.58 343.11 376.24 340.05 378.45 339.29C378.306 341.942 377.396 344.495 375.83 346.64C375.652 346.327 375.393 346.068 375.08 345.89L373.57 345.03C373.435 344.96 373.294 344.9 373.15 344.85C372.748 344.713 372.332 344.619 371.91 344.57ZM382.05 338.9C383.208 340.303 383.813 342.082 383.75 343.9C383.54 345.77 380.4 347.65 378.46 347.96C378.54 346.96 379.79 346.54 380.61 343.57C381.29 341.11 381.23 339.26 382.05 338.9ZM370.28 359.65C370.245 359.614 370.215 359.574 370.19 359.53C369.41 358.3 372.43 354.12 374.44 352.53C374.189 353.453 374.189 354.427 374.44 355.35C374.97 357.29 376.11 358.2 375.08 359.14C374.34 359.8 372 360.1 370.28 359.65ZM368.28 355.65C368.334 353.119 368.902 350.625 369.95 348.32C370.264 347.812 370.748 347.432 371.316 347.249C371.884 347.066 372.499 347.091 373.05 347.32C373.341 347.556 373.559 347.868 373.681 348.221C373.803 348.575 373.824 348.955 373.74 349.32C373.23 350.84 372.38 349.86 370.24 352.71C369.44 353.75 368.8 354.84 368.29 355.6L368.28 355.65Z" fill="black"/>
<path d="M367 355.49C367 361.76 371.4 364.3 376.83 361.17C382.26 358.04 386.67 350.41 386.67 344.17C386.67 337.93 382.26 335.36 376.83 338.49C371.4 341.62 367 349.22 367 355.49ZM376.86 347.85C375.69 348.33 376.63 346.4 374.64 345.7C373.07 345.14 371.36 345.64 372.01 344.29C372.66 342.94 377.33 339.15 379.27 339.12C381.21 339.09 378.58 347.14 376.87 347.85H376.86ZM385.25 344.73C384.95 347.38 378.76 350.07 378.46 348.27C378.26 347.04 379.69 346.83 380.6 343.55C381.32 340.96 381.2 338.99 382.2 338.82C383.2 338.65 385.56 342.09 385.26 344.73H385.25ZM377.85 350.81C378.85 349.57 378.85 351.36 381.38 350.03C383.38 349.03 385.03 347.28 385.01 348.52C384.99 349.76 381.76 355.69 379.63 357.35C377.5 359.01 376.33 352.62 377.86 350.81H377.85ZM375.85 351.95C376.69 352.41 375.23 353.74 375.9 356.2C376.42 358.14 377.56 359.05 376.54 359.99C375.52 360.93 371.18 361.15 370.17 359.53C369.16 357.91 374.63 351.28 375.87 352L375.85 351.95ZM368.5 357.38C367.9 356.72 368.5 350.92 369.94 348.27C371.38 345.62 376 347.9 375.23 350.12C374.72 351.65 373.87 350.67 371.73 353.52C370.06 355.76 369.13 358 368.52 357.38H368.5Z" fill="#E0E0E0"/>
<path d="M376.84 353.29C375.18 354.24 373.84 353.47 373.84 351.55C373.895 350.507 374.195 349.491 374.716 348.586C375.238 347.681 375.965 346.911 376.84 346.34C378.51 345.34 379.84 346.16 379.84 348.08C379.785 349.123 379.485 350.139 378.963 351.044C378.442 351.949 377.714 352.719 376.84 353.29Z" fill="#455A64"/>
<path d="M292.23 418.56L303.82 394.11L307.52 386.31C309.959 381.156 313.825 376.811 318.66 373.79V377.24C314.988 379.898 312.047 383.441 310.11 387.54L308.34 391.27L317.28 386.19V389.49L306.2 395.77L294.81 419.77C294.697 420.016 294.515 420.225 294.286 420.37C294.057 420.515 293.791 420.592 293.52 420.59C293.279 420.588 293.043 420.525 292.832 420.407C292.622 420.29 292.444 420.121 292.316 419.917C292.188 419.713 292.112 419.48 292.098 419.239C292.083 418.999 292.128 418.758 292.23 418.54V418.56Z" fill="#FAFAFA"/>
<path d="M324.75 384.21C328.8 391.88 327.49 401.64 327.34 404.98C327.19 408.32 328.86 407.66 329.81 404.98C330.76 402.3 333.25 391.35 329.01 381.79L324.75 384.21Z" fill="#EBEBEB"/>
<path d="M317 408C317 401.84 321.33 394.34 326.67 391.26C329.47 389.65 331.98 389.58 333.75 390.76L337.87 393.09L324 416.68L319.93 414.36C318.12 413.36 317 411.19 317 408Z" fill="#455A64"/>
<path d="M331 393.8C325.66 396.89 321.33 404.38 321.33 410.54C321.33 416.7 325.66 419.2 331 416.12C336.34 413.04 340.66 405.55 340.66 399.38C340.66 393.21 336.35 390.72 331 393.8Z" fill="#263238"/>
<path d="M331 401C330.009 401.647 329.184 402.519 328.591 403.543C327.999 404.568 327.656 405.718 327.59 406.9C327.59 409.07 329.12 409.95 331 408.9C331.991 408.256 332.815 407.386 333.406 406.363C333.997 405.339 334.337 404.19 334.4 403.01C334.42 400.83 332.9 400 331 401Z" fill="black"/>
<path d="M327.61 383.89C331.67 391.56 330.35 401.32 330.21 404.66C330.07 408 331.73 407.34 332.67 404.66C333.61 401.98 336.11 391.03 331.87 381.47L327.61 383.89Z" fill="#FAFAFA"/>
<path d="M317.36 387.69L357.81 363.69V368L323.33 388.4L318.9 391L318.12 391.45C317.804 391.634 317.444 391.728 317.078 391.721C316.713 391.715 316.356 391.609 316.047 391.414C315.738 391.219 315.488 390.943 315.325 390.616C315.161 390.29 315.09 389.924 315.12 389.56L315.49 385.68L317.36 387.69Z" fill="#37474F"/>
<path d="M344.88 458.81L364.28 447.61L302.22 411.78L282.82 422.98L344.88 458.81Z" fill="#005C8A"/>
<path d="M364.28 447.61V452.09L344.88 463.29V458.81L364.28 447.61Z" fill="#005C8A"/>
<path opacity="0.3" d="M364.28 447.61V452.09L344.88 463.29V458.81L364.28 447.61Z" fill="black"/>
<path d="M282.82 422.98V427.46L344.88 463.29V458.81L282.82 422.98Z" fill="#005C8A"/>
<path opacity="0.15" d="M282.82 422.98V427.46L344.88 463.29V458.81L282.82 422.98Z" fill="black"/>
<path d="M390 405.9C389.906 405.731 389.779 405.584 389.626 405.465C389.473 405.347 389.298 405.261 389.111 405.213C388.924 405.164 388.729 405.154 388.538 405.183C388.347 405.211 388.164 405.279 388 405.38L386.77 406.09C381.491 409.132 377.266 413.712 374.66 419.22L371 427L359.41 451.46C359.249 451.804 359.229 452.197 359.357 452.555C359.484 452.913 359.748 453.206 360.09 453.37C360.284 453.46 360.496 453.508 360.71 453.51C360.98 453.508 361.245 453.43 361.473 453.285C361.701 453.14 361.884 452.934 362 452.69L373.39 428.69L387.71 420.57C387.886 420.483 388.042 420.361 388.169 420.212C388.296 420.063 388.392 419.889 388.449 419.701C388.507 419.514 388.525 419.317 388.504 419.122C388.483 418.927 388.422 418.738 388.325 418.567C388.228 418.397 388.097 418.248 387.941 418.13C387.784 418.011 387.605 417.926 387.415 417.88C387.224 417.833 387.026 417.826 386.833 417.859C386.639 417.892 386.455 417.963 386.29 418.07L375.53 424.19L377.29 420.46C379.655 415.468 383.494 411.322 388.29 408.58L389.51 407.87C389.672 407.773 389.813 407.646 389.926 407.494C390.038 407.342 390.12 407.17 390.165 406.987C390.211 406.804 390.22 406.614 390.191 406.427C390.163 406.24 390.098 406.061 390 405.9Z" fill="#F5F5F5"/>
<path d="M390.69 422.07C394.74 429.74 393.43 439.5 393.28 442.84C393.13 446.18 394.8 445.52 395.75 442.84C396.7 440.16 399.19 429.21 394.95 419.65L390.69 422.07Z" fill="#E0E0E0"/>
<path d="M382.92 445.9C382.92 439.74 387.25 432.24 392.59 429.16C395.39 427.55 397.9 427.48 399.66 428.66L403.79 430.99L389.93 454.54L385.86 452.22C384.06 451.22 382.92 449.05 382.92 445.9Z" fill="#455A64"/>
<path d="M397 431.67C391.66 434.75 387.33 442.24 387.33 448.4C387.33 454.56 391.66 457.06 397 453.98C402.34 450.9 406.66 443.41 406.66 437.24C406.66 431.07 402.29 428.58 397 431.67Z" fill="#37474F"/>
<path d="M397 438.89C396.009 439.537 395.184 440.408 394.591 441.433C393.999 442.458 393.656 443.608 393.59 444.79C393.59 446.96 395.12 447.79 397 446.79C397.991 446.146 398.815 445.276 399.406 444.253C399.997 443.229 400.337 442.08 400.4 440.9C400.36 438.69 398.84 437.81 397 438.89Z" fill="#263238"/>
<path d="M393.551 421.75C397.611 429.42 396.291 439.18 396.151 442.52C396.011 445.86 397.671 445.2 398.611 442.52C399.551 439.84 402.051 428.89 397.811 419.33L393.551 421.75Z" fill="#F5F5F5"/>
<path d="M455.56 282.38L451.83 275.92L467.62 266.81C467.921 266.664 468.256 266.603 468.589 266.633C468.922 266.663 469.24 266.783 469.51 266.98C470.275 267.481 470.912 268.154 471.369 268.946C471.826 269.738 472.09 270.627 472.14 271.54C472.172 271.859 472.121 272.181 471.994 272.475C471.866 272.769 471.665 273.025 471.41 273.22L455.56 282.38Z" fill="#455A64"/>
<path d="M456.331 280.67C456.331 282.35 455.151 283.03 453.691 282.19C452.925 281.689 452.288 281.016 451.832 280.224C451.375 279.432 451.111 278.543 451.061 277.63C451.061 275.95 452.241 275.27 453.691 276.11C454.459 276.608 455.098 277.281 455.557 278.074C456.016 278.866 456.281 279.756 456.331 280.67Z" fill="#37474F"/>
<path d="M453.561 277.59C453.445 277.515 453.315 277.465 453.179 277.442C453.043 277.42 452.904 277.426 452.771 277.46L452.561 277.59L441.561 283.94L445.071 285.94L454.231 280.65L454.631 280.43C454.776 280.238 454.847 280 454.831 279.76C454.8 279.325 454.669 278.903 454.449 278.527C454.229 278.15 453.925 277.83 453.561 277.59Z" fill="#E0E0E0"/>
<path d="M413.001 257.8L409.271 251.35L425.061 242.23C425.36 242.079 425.694 242.014 426.028 242.043C426.362 242.071 426.681 242.191 426.951 242.39C427.726 242.893 428.371 243.574 428.832 244.375C429.292 245.177 429.556 246.077 429.601 247C429.63 247.318 429.578 247.639 429.448 247.932C429.319 248.224 429.116 248.478 428.861 248.67L413.001 257.8Z" fill="#455A64"/>
<path d="M413.781 256.1C413.781 257.78 412.601 258.46 411.141 257.62C410.375 257.118 409.737 256.443 409.281 255.649C408.824 254.855 408.56 253.965 408.511 253.05C408.511 251.37 409.691 250.69 411.141 251.53C411.909 252.03 412.549 252.705 413.007 253.499C413.466 254.293 413.731 255.184 413.781 256.1Z" fill="#37474F"/>
<path d="M411 253C410.884 252.925 410.755 252.875 410.619 252.852C410.483 252.83 410.344 252.836 410.21 252.87L410 253L399 259.35L402.51 261.35L411.68 256.05L412.08 255.83C412.215 255.633 412.282 255.398 412.27 255.16C412.239 254.726 412.108 254.306 411.888 253.931C411.668 253.557 411.364 253.238 411 253Z" fill="#E0E0E0"/>
<path d="M397.4 276.41L404.94 280.77L334.94 313.86C332.86 315.173 331.081 316.912 329.72 318.961C328.358 321.01 327.445 323.323 327.04 325.75L317.46 387.75C317.432 387.92 317.362 388.081 317.258 388.219C317.154 388.357 317.018 388.467 316.862 388.541C316.705 388.615 316.534 388.649 316.361 388.642C316.188 388.635 316.02 388.586 315.87 388.5C315.51 388.29 315.3 387.89 315.43 386.39L320.9 320.52C321.21 316.8 323.58 312.36 327.37 309.36L397.4 276.41Z" fill="#455A64"/>
<path d="M392.12 390.39L450.24 356.81C451.307 356.112 452.195 355.172 452.833 354.067C453.47 352.963 453.839 351.724 453.91 350.45V347C453.841 345.725 453.471 344.485 452.832 343.379C452.192 342.274 451.301 341.336 450.23 340.64L392.12 307.09C390.984 306.508 389.726 306.205 388.45 306.205C387.174 306.205 385.916 306.508 384.78 307.09L326.67 340.64C325.6 341.336 324.71 342.274 324.072 343.38C323.434 344.485 323.067 345.726 323 347V350.47C323.07 351.744 323.439 352.983 324.076 354.088C324.714 355.193 325.602 356.132 326.67 356.83L384.78 390.36C385.915 390.942 387.171 391.248 388.446 391.253C389.722 391.258 390.98 390.963 392.12 390.39Z" fill="#005C8A"/>
<path opacity="0.3" d="M391.051 390.85C391.425 390.731 391.786 390.577 392.131 390.39L450.241 356.81C451.307 356.111 452.193 355.171 452.829 354.066C453.465 352.962 453.832 351.723 453.901 350.45V347C453.833 345.868 453.531 344.761 453.015 343.751C452.499 342.741 451.779 341.848 450.901 341.13C452.211 342.3 451.981 343.86 450.221 344.88L392.401 378.29L391.051 390.85Z" fill="black"/>
<path opacity="0.15" d="M323 347V350.47C323.067 351.744 323.434 352.985 324.072 354.09C324.71 355.196 325.6 356.134 326.67 356.83L384.78 390.37C385.744 390.855 386.793 391.145 387.869 391.224C388.945 391.303 390.026 391.169 391.05 390.83L392.4 378.27L392.13 378.43C390.992 379.012 389.733 379.315 388.455 379.315C387.177 379.315 385.918 379.012 384.78 378.43L326.67 344.9C324.9 343.9 324.67 342.31 325.98 341.15C325.108 341.868 324.393 342.758 323.881 343.765C323.368 344.771 323.068 345.872 323 347Z" fill="black"/>
<path d="M371.451 319.05L429.571 352.6C430.892 353.292 432.385 353.588 433.871 353.45L434.511 353.38H434.651L435.031 353.31H435.081C435.276 353.274 435.47 353.227 435.661 353.17C436.094 353.036 436.513 352.858 436.911 352.64L439.911 350.91C442.138 349.459 443.721 347.207 444.331 344.62L453.171 295.29C453.22 294.986 453.243 294.678 453.241 294.37C453.241 294.25 453.241 294.13 453.241 294.01C453.192 293.394 453.058 292.788 452.841 292.21C452.447 291.128 451.774 290.169 450.891 289.43L450.651 289.24L450.261 288.99L392.131 255.4C390.992 254.823 389.733 254.522 388.456 254.522C387.179 254.522 385.92 254.823 384.781 255.4L381.781 257.13C381.129 257.521 380.536 258.002 380.021 258.56C379.921 258.67 379.811 258.78 379.721 258.89C379.327 259.341 378.969 259.823 378.651 260.33C378.575 260.437 378.508 260.551 378.451 260.67C378.388 260.763 378.331 260.86 378.281 260.96C378.201 261.11 378.131 261.25 378.061 261.4C377.991 261.55 377.921 261.68 377.861 261.83L377.711 262.19C377.686 262.248 377.666 262.309 377.651 262.37L377.541 262.69C377.541 262.83 377.461 262.97 377.431 263.11C377.401 263.25 377.381 263.32 377.361 263.42L368.521 312.76C368.363 313.978 368.554 315.217 369.073 316.33C369.592 317.444 370.416 318.387 371.451 319.05Z" fill="#005C8A"/>
<path d="M442.82 301.21L434 350.55C433.963 351.045 433.795 351.522 433.512 351.93C433.229 352.338 432.843 352.663 432.392 352.872C431.942 353.081 431.444 353.166 430.949 353.118C430.455 353.07 429.982 352.892 429.58 352.6L371.46 319.05C370.427 318.384 369.604 317.439 369.087 316.323C368.57 315.208 368.381 313.969 368.54 312.75L377.38 263.42C377.415 262.923 377.581 262.445 377.863 262.035C378.146 261.624 378.533 261.298 378.984 261.088C379.436 260.879 379.936 260.794 380.431 260.844C380.926 260.893 381.399 261.075 381.8 261.37L439.91 294.92C440.944 295.583 441.767 296.527 442.282 297.641C442.798 298.755 442.984 299.993 442.82 301.21Z" fill="#005C8A"/>
<path opacity="0.15" d="M442.82 301.21L434 350.55C433.963 351.045 433.795 351.522 433.512 351.93C433.229 352.338 432.843 352.663 432.392 352.872C431.942 353.081 431.444 353.166 430.949 353.118C430.455 353.07 429.982 352.892 429.58 352.6L371.46 319.05C370.427 318.384 369.604 317.439 369.087 316.323C368.57 315.208 368.381 313.969 368.54 312.75L377.38 263.42C377.415 262.923 377.581 262.445 377.863 262.035C378.146 261.624 378.533 261.298 378.984 261.088C379.436 260.879 379.936 260.794 380.431 260.844C380.926 260.893 381.399 261.075 381.8 261.37L439.91 294.92C440.944 295.583 441.767 296.527 442.282 297.641C442.798 298.755 442.984 299.993 442.82 301.21Z" fill="black"/>
<path opacity="0.3" d="M431.061 353.19C431.977 353.428 432.926 353.515 433.871 353.45L434.511 353.38C434.691 353.38 434.861 353.33 435.031 353.29H435.081C435.276 353.254 435.47 353.207 435.661 353.15C436.094 353.016 436.513 352.838 436.911 352.62L439.911 350.89C442.138 349.439 443.72 347.187 444.331 344.6L453.171 295.27C453.219 294.966 453.243 294.658 453.241 294.35C453.241 294.23 453.241 294.11 453.241 293.99C453.192 293.374 453.057 292.768 452.841 292.19L442.471 298.08C442.882 299.079 443.01 300.173 442.841 301.24L434.001 350.55C433.952 351.272 433.619 351.945 433.076 352.423C432.533 352.9 431.823 353.144 431.101 353.1C431.092 353.132 431.079 353.163 431.061 353.19Z" fill="black"/>
<path d="M343.49 391.27C343.49 391.27 337.06 422.46 334.16 431.35C332.28 437.09 326.32 443.64 321.49 448.2C320.44 449.2 318.14 451.06 317.23 451.81C315.23 453.45 316.62 454.64 318.4 455.12C322.57 456.24 326.77 455.37 331.69 452.4C337.34 448.99 339.69 446.11 344.69 441.96C346.293 440.7 347.701 439.211 348.87 437.54C349.367 436.462 349.554 435.268 349.41 434.09C349.338 432.797 349.402 431.5 349.6 430.22C350.37 425.92 364.33 401.6 364.33 401.6L343.49 391.27Z" fill="#C8856A"/>
<path d="M305.83 455.81C305.55 455.81 305.1 458.93 306.63 460.27C308.4 461.82 313.63 464.37 320.51 463.52C327.39 462.67 331.16 460.52 333.94 458.27C336.72 456.02 340.6 452.74 343.73 452.07C346.63 451.45 349.79 450.15 350.73 449.26C351.67 448.37 351.56 444.39 351.56 444.39L305.83 455.81Z" fill="#263238"/>
<path d="M349.61 430.22C350.72 430.22 350.95 431.38 350.81 432.31C350.05 437.48 352.16 441.62 351.41 445.76C351.02 447.76 346.28 449.19 343.26 450.32C339.692 451.849 336.377 453.912 333.43 456.44C330.18 459.09 323.34 461.73 318.84 461.77C311.98 461.82 307.55 459.93 306.19 457.46C304.51 454.4 305.72 451.35 313.79 448.1C317.53 446.59 320.92 445.1 322.57 443.74C330.2 437.59 331.5 434.84 333.15 431.93C334.01 430.4 334.6 430.02 336.59 430.06C338.99 430.06 341.37 430.65 342.8 432.39C343.54 433.65 343.42 435.22 343.43 436.64C343.43 436.83 343.35 437.19 343.62 437.11C344.71 435.98 344.76 434.04 345.88 432.87C346.54 431.87 349.33 431.31 349.33 431.31L349.61 430.22Z" fill="#37474F"/>
<path d="M313.79 448.1C323.72 448.84 328.74 455.22 329.14 459.02C323.74 461.45 320.9 461.75 318.84 461.77C311.98 461.82 307.26 459.94 305.91 457.46C304.32 454.57 305.75 450.34 313.79 448.1Z" fill="#FAFAFA"/>
<path d="M328.14 449.84C328.253 449.844 328.364 449.804 328.45 449.73C328.5 449.69 328.541 449.641 328.571 449.585C328.602 449.529 328.621 449.468 328.627 449.405C328.634 449.341 328.628 449.277 328.609 449.217C328.591 449.156 328.56 449.099 328.52 449.05C327.365 447.84 325.964 446.892 324.411 446.271C322.859 445.65 321.19 445.37 319.52 445.45C319.454 445.457 319.39 445.476 319.332 445.507C319.274 445.538 319.223 445.581 319.181 445.632C319.139 445.683 319.108 445.742 319.089 445.805C319.07 445.868 319.063 445.934 319.07 446C319.076 446.066 319.096 446.129 319.127 446.188C319.158 446.246 319.201 446.297 319.252 446.339C319.303 446.381 319.362 446.412 319.425 446.431C319.488 446.45 319.554 446.457 319.62 446.45C321.123 446.397 322.62 446.658 324.016 447.215C325.413 447.773 326.677 448.616 327.73 449.69C327.78 449.747 327.844 449.791 327.916 449.817C327.988 449.843 328.064 449.851 328.14 449.84Z" fill="#F0F0F0"/>
<path d="M332.51 446.45C332.622 446.457 332.733 446.421 332.82 446.35C332.92 446.268 332.984 446.15 332.999 446.021C333.014 445.892 332.978 445.763 332.9 445.66C331.743 444.453 330.342 443.508 328.789 442.889C327.237 442.269 325.569 441.99 323.9 442.07C323.767 442.083 323.645 442.149 323.561 442.252C323.476 442.355 323.437 442.487 323.45 442.62C323.463 442.753 323.528 442.875 323.632 442.959C323.735 443.043 323.867 443.083 324 443.07C325.502 443.017 327 443.278 328.396 443.835C329.793 444.393 331.057 445.236 332.11 446.31C332.16 446.364 332.223 446.404 332.293 446.429C332.362 446.453 332.437 446.46 332.51 446.45Z" fill="#F0F0F0"/>
<path d="M336.52 443.11C336.629 443.107 336.734 443.069 336.82 443C336.919 442.92 336.983 442.803 336.998 442.676C337.013 442.549 336.978 442.421 336.9 442.32C335.745 441.11 334.344 440.162 332.791 439.541C331.238 438.92 329.57 438.64 327.9 438.72C327.834 438.727 327.77 438.746 327.712 438.777C327.654 438.808 327.603 438.851 327.561 438.902C327.519 438.953 327.488 439.012 327.469 439.075C327.45 439.138 327.443 439.204 327.45 439.27C327.456 439.336 327.476 439.399 327.507 439.458C327.538 439.516 327.58 439.567 327.632 439.609C327.683 439.651 327.741 439.682 327.805 439.701C327.868 439.72 327.934 439.727 328 439.72C329.503 439.668 331.001 439.93 332.397 440.49C333.794 441.05 335.058 441.894 336.11 442.97C336.164 443.022 336.228 443.062 336.299 443.086C336.37 443.11 336.445 443.118 336.52 443.11Z" fill="#F0F0F0"/>
<path d="M340.12 439.75C340.229 439.751 340.334 439.716 340.42 439.65C340.471 439.611 340.513 439.562 340.544 439.507C340.575 439.451 340.595 439.39 340.603 439.327C340.61 439.263 340.605 439.199 340.587 439.138C340.57 439.077 340.54 439.02 340.5 438.97C338.62 436.55 334.32 434.97 330.71 435.31C330.578 435.323 330.456 435.389 330.371 435.492C330.287 435.595 330.247 435.727 330.26 435.86C330.274 435.993 330.339 436.115 330.442 436.199C330.545 436.283 330.678 436.323 330.81 436.31C334.06 435.98 338.06 437.45 339.74 439.59C339.787 439.644 339.845 439.687 339.911 439.715C339.977 439.743 340.049 439.755 340.12 439.75Z" fill="#F0F0F0"/>
<path d="M311.56 372.71C311.56 372.71 305.09 403.89 302.18 412.78C300.29 418.52 294.32 425.06 289.49 429.62C288.44 430.62 286.14 432.47 285.23 433.22C283.23 434.85 284.62 436.05 286.39 436.53C290.57 437.65 294.77 436.79 299.68 433.83C305.34 430.42 307.68 427.55 312.68 423.4C314.283 422.144 315.692 420.658 316.86 418.99C317.365 417.915 317.556 416.719 317.41 415.54C317.339 414.244 317.403 412.943 317.6 411.66C318.38 407.37 332.37 383.07 332.37 383.07L311.56 372.71Z" fill="#C8856A"/>
<path d="M273.82 437.21C273.54 437.21 273.09 440.33 274.62 441.67C276.39 443.22 281.62 445.77 288.49 444.93C295.36 444.09 299.15 441.99 301.93 439.7C304.71 437.41 308.6 434.18 311.72 433.51C314.63 432.89 317.78 431.6 318.72 430.71C319.66 429.82 319.55 425.84 319.55 425.84L273.82 437.21Z" fill="#263238"/>
<path d="M317.63 411.66C318.75 411.66 318.97 412.83 318.83 413.76C318.06 418.93 320.17 423.07 319.41 427.21C319.02 429.21 314.28 430.63 311.25 431.76C307.689 433.289 304.379 435.345 301.43 437.86C298.16 440.51 291.32 443.14 286.83 443.18C279.96 443.23 275.53 441.33 274.18 438.85C272.5 435.79 273.72 432.75 281.79 429.5C285.53 428 288.93 426.5 290.57 425.15C298.21 419.02 299.52 416.26 301.17 413.36C302.03 411.83 302.34 411.19 304.32 411.24C306.94 411.31 309.39 412.09 310.82 413.83C311.56 415.09 311.43 416.66 311.45 418.08C311.45 418.27 311.36 418.63 311.64 418.55C312.72 417.42 312.78 415.49 313.9 414.32C314.56 413.32 317.35 412.76 317.35 412.76L317.63 411.66Z" fill="#37474F"/>
<path d="M281.79 429.5C291.72 430.26 296.73 436.64 297.13 440.44C291.72 442.87 288.88 443.16 286.83 443.18C279.96 443.23 275.25 441.33 273.9 438.86C272.31 436 273.75 431.74 281.79 429.5Z" fill="#FAFAFA"/>
<path d="M296.14 431.26C296.251 431.262 296.36 431.227 296.45 431.16C296.5 431.119 296.541 431.069 296.572 431.012C296.602 430.956 296.621 430.894 296.628 430.83C296.634 430.765 296.628 430.701 296.61 430.639C296.591 430.577 296.56 430.52 296.52 430.47C295.37 429.266 293.978 428.322 292.434 427.699C290.891 427.077 289.233 426.791 287.57 426.86C287.505 426.866 287.443 426.885 287.386 426.916C287.328 426.946 287.278 426.988 287.237 427.038C287.196 427.088 287.166 427.146 287.147 427.208C287.129 427.27 287.123 427.336 287.13 427.4C287.136 427.463 287.155 427.524 287.185 427.58C287.215 427.636 287.256 427.686 287.305 427.726C287.354 427.766 287.411 427.795 287.472 427.813C287.533 427.831 287.597 427.837 287.66 427.83C289.163 427.779 290.66 428.042 292.057 428.602C293.453 429.161 294.717 430.005 295.77 431.08C295.813 431.137 295.869 431.182 295.933 431.214C295.998 431.245 296.068 431.261 296.14 431.26Z" fill="#F0F0F0"/>
<path d="M300.52 427.88C300.631 427.881 300.74 427.846 300.83 427.78C300.928 427.696 300.991 427.578 301.004 427.449C301.017 427.32 300.98 427.192 300.9 427.09C299.745 425.879 298.344 424.931 296.792 424.308C295.239 423.685 293.571 423.403 291.9 423.48C291.771 423.495 291.654 423.56 291.573 423.661C291.493 423.763 291.456 423.891 291.47 424.02C291.475 424.084 291.492 424.146 291.522 424.202C291.552 424.259 291.593 424.309 291.642 424.349C291.692 424.389 291.749 424.419 291.811 424.436C291.872 424.454 291.936 424.458 292 424.45C293.502 424.397 294.998 424.659 296.393 425.219C297.788 425.778 299.051 426.624 300.1 427.7C300.15 427.762 300.214 427.811 300.287 427.842C300.361 427.873 300.44 427.886 300.52 427.88Z" fill="#F0F0F0"/>
<path d="M304.52 424.54C304.632 424.539 304.741 424.5 304.83 424.43C304.879 424.39 304.92 424.341 304.951 424.285C304.981 424.229 305 424.168 305.007 424.105C305.013 424.041 305.007 423.977 304.989 423.917C304.97 423.856 304.94 423.799 304.9 423.75C303.746 422.538 302.345 421.589 300.792 420.966C299.24 420.343 297.571 420.061 295.9 420.14C295.836 420.146 295.775 420.165 295.719 420.195C295.663 420.225 295.614 420.266 295.574 420.315C295.534 420.365 295.504 420.421 295.486 420.482C295.468 420.543 295.463 420.607 295.47 420.67C295.476 420.733 295.495 420.794 295.525 420.85C295.555 420.906 295.596 420.956 295.645 420.996C295.694 421.036 295.751 421.065 295.812 421.083C295.873 421.101 295.937 421.107 296 421.1C297.504 421.052 299.001 421.317 300.397 421.878C301.793 422.439 303.057 423.284 304.11 424.36C304.157 424.422 304.22 424.472 304.291 424.503C304.363 424.535 304.442 424.547 304.52 424.54Z" fill="#F0F0F0"/>
<path d="M308.13 421.19C308.24 421.193 308.348 421.154 308.43 421.08C308.531 421.001 308.597 420.885 308.614 420.758C308.63 420.631 308.597 420.503 308.52 420.4C306.63 417.99 302.34 416.4 298.73 416.74C298.664 416.747 298.6 416.766 298.542 416.797C298.484 416.828 298.433 416.871 298.391 416.922C298.349 416.973 298.318 417.032 298.299 417.095C298.28 417.158 298.273 417.224 298.28 417.29C298.286 417.356 298.306 417.419 298.337 417.478C298.368 417.536 298.411 417.587 298.462 417.629C298.513 417.671 298.572 417.702 298.635 417.721C298.698 417.74 298.764 417.747 298.83 417.74C302.08 417.42 306.08 418.9 307.75 421.04C307.799 421.09 307.858 421.13 307.924 421.156C307.989 421.181 308.06 421.193 308.13 421.19Z" fill="#F0F0F0"/>
<path d="M312.79 358.86C314.58 350.33 314.36 347.18 320.2 342.19C327.67 335.82 333.7 332.45 342.03 327.19C349.597 322.565 357.43 318.391 365.49 314.69L417.8 325.6C418.62 330.48 419.99 340.6 417.27 347.55C413.68 356.68 410.12 360.28 402.83 364.44C387.83 372.99 368.92 381.8 368.92 381.8C368.875 386.535 368.202 391.242 366.92 395.8C364.34 404 363.33 405.65 358.67 414.8C353.16 425.58 351.49 428.73 351.49 428.73C351.49 428.73 341.44 429.47 334.83 425.26C334.83 425.26 342.94 384.08 344.3 377.09C347.24 361.9 350.62 360.09 353.52 357.54L337.26 365.11C337.26 365.11 338 373.19 333 383L319.12 410.17C314.84 411.41 305.43 409.17 303.22 406.76C303.21 406.77 309.51 374.52 312.79 358.86Z" fill="#37474F"/>
<path d="M337.27 365.06L353.53 357.49L378.41 340.66C374.28 338.58 367.98 334.66 365.65 330.03C366.26 335.03 370.24 339.97 370.24 339.97L337.27 365.06Z" fill="#263238"/>
<path d="M317.859 288.58L347.599 280.3C347.599 280.3 355.859 271.11 360.019 266.37C372.019 252.72 374.559 249.48 384.189 249.5L383.189 272.27C383.189 272.27 371.879 282.64 362.499 291.39C357.619 295.95 356.349 296.59 349.289 297.59C344.039 298.33 341.289 298.7 333.649 299.67C324.239 300.86 321.789 301.19 321.789 301.19L317.859 288.58Z" fill="#C8856A"/>
<path d="M321.62 287.53C315.62 289.22 313.36 289.95 310.35 287.07C307.34 284.19 306.43 283.76 305.52 283.35C302.838 282.739 300.119 282.312 297.38 282.07C295.8 281.91 294.64 282.47 292.07 282.93C290.79 283.16 289.28 283.34 287.98 283.48C286.88 283.453 285.782 283.584 284.72 283.87C283.42 284.44 284.48 286.17 285.72 286.68C287.173 287.138 288.7 287.318 290.22 287.21C291.32 287.21 293.93 287.14 293.93 287.14C293.93 288.05 293.61 289.82 294.02 290.76C294.43 291.7 294.73 292.02 297.1 292.95C296.988 293.247 296.939 293.564 296.956 293.88C296.973 294.197 297.056 294.507 297.2 294.79C297.772 295.443 298.501 295.939 299.32 296.23C299.176 296.72 299.197 297.243 299.38 297.72C299.69 298.47 301.57 299.37 303.38 299.95C305.31 300.85 307.38 302.61 309.07 303.25C310.76 303.89 312.69 303.5 315.72 302.52C319.44 301.594 323.205 300.857 327 300.31C327 300.31 328 285.77 321.62 287.53Z" fill="#C8856A"/>
<path d="M304.309 286C302.617 286.35 300.856 286.121 299.309 285.35C297.809 284.55 296.209 283.56 295.819 283.94C295.169 284.58 295.239 287.04 297.569 288.57C299.899 290.1 302.849 291.23 303.459 291.69C304.337 292.733 305.034 293.916 305.519 295.19C306.217 296.489 307.298 297.543 308.614 298.208C309.93 298.873 311.419 299.118 312.879 298.91C311.277 299.513 309.503 299.473 307.929 298.8C304.929 297.71 304.059 294.44 303.299 293.22C302.539 292 302.379 291.76 300.059 290.73C297.739 289.7 295.229 288.61 294.829 285.66C294.429 282.71 295.829 282.87 296.599 283.17C297.369 283.47 301.369 286.54 304.309 286Z" fill="#AF6152"/>
<path d="M294 287.14L295.71 286.87L295.65 287.57C295.21 287.692 294.812 287.933 294.5 288.267C294.188 288.6 293.973 289.013 293.88 289.46C293.82 288.86 293.91 287.83 294 287.14Z" fill="#AF6152"/>
<path d="M297.119 293C297.889 293.34 300.339 294.22 300.839 294.41C301.339 294.6 301.839 293.81 301.559 292.78C301.368 291.923 300.861 291.17 300.139 290.67C300.978 291.084 301.632 291.797 301.969 292.67C302.399 293.98 301.909 294.67 301.429 294.99C300.949 295.31 298.769 293.65 297.119 293Z" fill="#AF6152"/>
<path d="M299.34 296.23C299.92 296.49 300.76 296.71 302.34 297.39C303.27 297.78 303.85 298.06 304.2 297.59C304.365 297.108 304.379 296.586 304.242 296.095C304.105 295.604 303.821 295.167 303.43 294.84C302.894 294.441 302.313 294.105 301.7 293.84L301.87 293.37C302.861 293.756 303.746 294.373 304.45 295.17C305.28 296.29 305.14 298 304.45 298.17C303.76 298.34 303.27 298.12 301.96 297.5C300.65 296.88 299.34 296.23 299.34 296.23Z" fill="#AF6152"/>
<path d="M304 298C304.35 298.21 304.86 299 304.42 299.48C304.284 299.628 304.118 299.747 303.934 299.828C303.75 299.908 303.551 299.95 303.35 299.95C303.582 300.054 303.84 300.083 304.089 300.033C304.339 299.982 304.566 299.856 304.74 299.67C304.929 299.359 305.009 298.993 304.968 298.631C304.926 298.268 304.765 297.93 304.51 297.67L304 298Z" fill="#AF6152"/>
<path d="M361.939 316.5L366.999 306.4L369.599 291.82C367.557 289.907 366.021 287.517 365.129 284.864C364.238 282.211 364.018 279.379 364.489 276.62C365.489 271.08 367.839 267.56 370.489 263.79C375.359 256.79 382.199 250.79 384.199 249.5C386.749 249.5 389.749 249.5 392.109 249.5C394.745 249.511 397.375 249.749 399.969 250.21L403.439 250.82C408.521 251.715 413.412 253.473 417.899 256.02C418.959 256.62 419.549 257.02 419.549 257.02C418.009 261.02 414.339 270.75 416.549 277.57C419.199 285.79 423.839 286.01 423.839 286.01C420.776 292.692 418.624 299.755 417.439 307.01C416.159 314.24 418.569 320.87 418.949 332.01C408.059 337.35 394.679 336.01 380.949 331.28C369.999 327.43 361.939 316.5 361.939 316.5Z" fill="#F0F0F0"/>
<path opacity="0.2" d="M384.59 296.65C389.48 300.41 399.49 301.25 405.42 293.74C405.42 293.74 402.93 300.24 395.82 301.24C387 302.47 384.59 296.65 384.59 296.65Z" fill="black"/>
<path d="M411.329 199.32C416.139 195.4 425.469 200.77 424.409 206.68C429.409 206.37 431.989 216.06 428.239 219.6C430.439 222.43 429.559 229.45 425.399 230.71C426.469 233.31 422.179 239.83 416.469 237.97C413.879 242.97 404.889 241.56 402.369 236.25C402.939 233.14 411.329 199.32 411.329 199.32Z" fill="#263238"/>
<path d="M409.999 242.55C411.179 239.34 413.339 237.55 414.929 235.93C418.829 232.01 420.589 229.78 422.429 223.13C423.629 218.82 424.529 209.55 418.429 207.04C417.159 199.47 410.749 196.19 401.109 196.78C397.356 197.156 393.638 197.824 389.989 198.78C388.351 199.216 386.678 199.511 384.989 199.66C383.282 199.779 381.571 199.502 379.989 198.85C379.139 198.52 378.119 198.02 377.419 198.52C377.232 198.685 377.086 198.891 376.993 199.121C376.899 199.352 376.86 199.602 376.879 199.85C376.885 200.877 377.155 201.886 377.663 202.779C378.171 203.672 378.899 204.419 379.779 204.95C378.651 204.712 377.475 204.896 376.473 205.466C375.472 206.037 374.714 206.956 374.345 208.048C373.975 209.14 374.018 210.329 374.467 211.391C374.916 212.453 375.738 213.314 376.779 213.81C376.174 214.451 375.798 215.275 375.71 216.152C375.621 217.029 375.825 217.911 376.289 218.66C377.348 220.02 378.764 221.059 380.379 221.66C385.219 224.02 389.379 227.56 393.649 230.75C397.729 233.82 409.939 242.35 409.999 242.55Z" fill="#37474F"/>
<path d="M387.319 206C382.719 208 379.369 210 378.139 227.24C377.269 239.53 381.819 243.77 383.939 244.75C386.407 246.002 389.198 246.473 391.939 246.1V252.88C391.939 252.88 385.479 260.3 386.939 268.88C405.159 261.16 410.679 252.77 410.679 252.77L410.189 234.77C410.189 234.77 412.799 236.86 414.899 235.97C419.899 233.85 421.259 227.79 418.719 225.19C416.179 222.59 412.309 223.11 410.839 225.93C410.839 225.93 412.469 214.27 405.439 209.17C397.159 203.14 392.719 203.57 387.319 206Z" fill="#C8856A"/>
<path d="M394.299 233.65C394.509 234.056 394.631 234.503 394.655 234.96C394.68 235.417 394.607 235.874 394.44 236.3C394.274 236.726 394.019 237.113 393.692 237.433C393.365 237.753 392.974 238 392.544 238.156C392.114 238.313 391.656 238.377 391.199 238.343C390.743 238.308 390.299 238.177 389.898 237.958C389.496 237.739 389.146 237.437 388.87 237.071C388.594 236.706 388.4 236.286 388.299 235.84L394.299 233.65Z" fill="#AF6152"/>
<path d="M392.449 238C392.958 237.808 393.41 237.489 393.76 237.072C394.111 236.655 394.348 236.155 394.449 235.62C393.623 235.613 392.81 235.829 392.096 236.244C391.381 236.659 390.792 237.259 390.389 237.98C391.051 238.23 391.781 238.237 392.449 238Z" fill="#FFA8A7"/>
<path d="M390.279 220.72L387.819 232.26L382.069 229.52L390.279 220.72Z" fill="#AF6152"/>
<path d="M391.909 246.07C401.809 244.56 405.779 242.88 409.099 237.14C408.743 239.302 407.771 241.316 406.299 242.94C402.889 246.25 391.909 247.64 391.909 247.64V246.07Z" fill="#AF6152"/>
<path d="M394.399 219L398.489 221.62C398.654 221.356 398.764 221.063 398.815 220.757C398.865 220.45 398.854 220.137 398.782 219.834C398.711 219.532 398.58 219.247 398.397 218.996C398.215 218.744 397.985 218.532 397.719 218.37C397.194 218.019 396.552 217.888 395.931 218.006C395.309 218.123 394.76 218.481 394.399 219Z" fill="#263238"/>
<path d="M380.449 218.72L384.939 217.18C384.702 216.589 384.248 216.111 383.67 215.843C383.092 215.576 382.434 215.539 381.829 215.74C381.537 215.837 381.268 215.992 381.038 216.197C380.808 216.402 380.623 216.652 380.493 216.931C380.364 217.21 380.293 217.513 380.286 217.821C380.278 218.129 380.334 218.435 380.449 218.72Z" fill="#263238"/>
<path d="M384.379 222.63C384.397 222.974 384.312 223.315 384.135 223.611C383.958 223.907 383.698 224.143 383.386 224.29C383.075 224.438 382.727 224.49 382.387 224.439C382.046 224.389 381.728 224.238 381.473 224.007C381.218 223.776 381.037 223.474 380.953 223.14C380.87 222.806 380.887 222.454 381.004 222.13C381.12 221.806 381.33 221.524 381.607 221.319C381.884 221.114 382.215 220.996 382.559 220.98C383.018 220.961 383.467 221.123 383.807 221.432C384.148 221.741 384.353 222.171 384.379 222.63Z" fill="#263238"/>
<path d="M396.699 224.38C396.717 224.724 396.632 225.065 396.455 225.361C396.278 225.657 396.018 225.893 395.707 226.04C395.396 226.188 395.048 226.24 394.707 226.189C394.366 226.139 394.048 225.988 393.793 225.757C393.538 225.526 393.357 225.224 393.274 224.89C393.19 224.556 393.208 224.204 393.324 223.88C393.44 223.556 393.65 223.274 393.927 223.069C394.204 222.864 394.535 222.746 394.879 222.73C395.339 222.711 395.787 222.873 396.128 223.182C396.468 223.491 396.674 223.921 396.699 224.38Z" fill="#263238"/>
<path d="M391.779 211.16C393.829 211.56 396.299 208.43 400.119 210.56C403.499 212.44 402.239 215.15 405.429 218.65C407.539 220.98 405.569 225.93 408.169 227.1C409.329 227.62 410.819 225.89 410.819 225.89C410.819 225.89 412.949 222.89 412.269 215.69C411.589 208.49 401.409 203.39 394.129 202.84C386.849 202.29 380.309 206.84 380.449 213.23C380.449 213.23 382.189 208.9 385.609 208.53C389.029 208.16 389.939 210.79 391.779 211.16Z" fill="#37474F"/>
<path d="M399.23 349.29V350.29C399.229 350.814 399.092 351.329 398.83 351.784C398.569 352.238 398.193 352.616 397.74 352.88L369.24 369.29C368.782 369.548 368.265 369.683 367.74 369.683C367.214 369.683 366.698 369.548 366.24 369.29L314 339.15C313.547 338.886 313.171 338.508 312.909 338.054C312.648 337.599 312.51 337.084 312.51 336.56V335.83L367.78 367.74L399.23 349.29Z" fill="#EBEBEB"/>
<path d="M312.47 335.83L343.47 317.94C343.74 317.783 344.047 317.7 344.36 317.7C344.672 317.7 344.979 317.783 345.25 317.94L399 349C399.06 349.035 399.11 349.086 399.144 349.146C399.179 349.207 399.197 349.275 399.197 349.345C399.197 349.415 399.179 349.483 399.144 349.544C399.11 349.604 399.06 349.655 399 349.69L367.71 367.76L312.47 335.83Z" fill="#FAFAFA"/>
<path d="M368.019 365.11L384.749 355.47L335.849 327.24L319.049 336.84L368.019 365.11Z" fill="#E0E0E0"/>
<path d="M376.239 338.29L375.939 338.46L367.739 343.2L353.169 334.78L352.859 334.61L361.369 329.7L376.239 338.29Z" fill="#E0E0E0"/>
<path d="M375.939 338.46L367.739 343.2L353.169 334.78L361.369 330.05L375.939 338.46Z" fill="#E6E6E6"/>
<path d="M367.74 367.74V369.74C367.218 369.742 366.704 369.607 366.25 369.35L314 339.15C313.547 338.886 313.171 338.508 312.909 338.054C312.648 337.599 312.51 337.084 312.51 336.56V335.83L367.74 367.74Z" fill="#EBEBEB"/>
<g style="mix-blend-mode:multiply" opacity="0.5">
<path d="M367.74 367.74V369.74C367.218 369.742 366.704 369.607 366.25 369.35L314 339.15C313.547 338.886 313.171 338.508 312.909 338.054C312.648 337.599 312.51 337.084 312.51 336.56V335.83L367.74 367.74Z" fill="#E0E0E0"/>
</g>
<path d="M366.899 368.19C366.413 368.374 365.891 368.448 365.372 368.407C364.854 368.365 364.351 368.209 363.899 367.95L311.789 337.9C311.339 337.637 310.952 337.278 310.655 336.85C310.358 336.422 310.158 335.934 310.069 335.42L304.369 301.42C304.338 301.228 304.322 301.034 304.319 300.84C304.319 300.371 304.411 299.907 304.592 299.475C304.772 299.042 305.036 298.65 305.369 298.32L359.469 329.56C359.802 329.754 360.088 330.018 360.308 330.334C360.527 330.65 360.674 331.011 360.739 331.39L366.899 368.19Z" fill="#005C8A"/>
<g opacity="0.7">
<path d="M366.899 368.19C366.413 368.374 365.891 368.448 365.372 368.407C364.854 368.365 364.351 368.209 363.899 367.95L311.789 337.9C311.339 337.637 310.952 337.278 310.655 336.85C310.358 336.422 310.158 335.934 310.069 335.42L304.369 301.42C304.338 301.228 304.322 301.034 304.319 300.84C304.319 300.371 304.411 299.907 304.592 299.475C304.772 299.042 305.036 298.65 305.369 298.32L359.469 329.56C359.802 329.754 360.088 330.018 360.308 330.334C360.527 330.65 360.674 331.011 360.739 331.39L366.899 368.19Z" fill="white"/>
</g>
<path d="M367.739 367.75L367.379 367.95C367.224 368.04 367.064 368.12 366.899 368.19L360.739 331.41C360.674 331.031 360.527 330.67 360.307 330.354C360.088 330.038 359.802 329.774 359.469 329.58L305.369 298.34C305.587 298.129 305.829 297.945 306.089 297.79L360.299 329.08C360.631 329.277 360.917 329.543 361.136 329.861C361.355 330.178 361.503 330.54 361.569 330.92L367.739 367.75Z" fill="#FAFAFA"/>
<path d="M337.58 336.81C337.2 334.54 334.85 331.52 332.33 330.06C329.81 328.6 328.09 329.28 328.47 331.55C328.85 333.82 331.2 336.85 333.72 338.3C336.24 339.75 338 339.09 337.58 336.81Z" fill="#005C8A"/>
<path d="M439.649 308.43C438.869 304.82 432.959 271.09 431.059 266.62C429.009 261.77 423.559 258.42 419.539 256.99C412.679 262.35 413.459 279.22 414.619 282.88L421.529 309.32C421.529 309.32 413.779 313.62 407.529 316.99C402.179 319.88 398.529 322.99 392.089 324.04C385.649 325.09 384.439 324.81 379.089 327.57C377.213 328.586 375.421 329.75 373.729 331.05C371.909 333.22 369.609 334.94 367.649 336.97C366.139 338.12 367.649 338.8 368.859 338.82C372.299 338.73 374.909 335.9 377.919 334.62C377.619 335.741 377.49 336.901 377.539 338.06C377.539 338.99 377.419 340.12 378.249 340.77C378.877 341.103 379.551 341.343 380.249 341.48C380.282 341.815 380.435 342.127 380.679 342.36C381.167 342.685 381.761 342.81 382.339 342.71C382.656 342.67 382.97 342.61 383.279 342.53C383.333 342.822 383.464 343.096 383.657 343.322C383.85 343.548 384.099 343.72 384.379 343.82C385.687 344.183 387.07 344.183 388.379 343.82C388.569 343.73 389.999 342.88 390.379 342.63C390.989 342.28 391.539 342.07 391.799 341.63C392.059 341.19 391.149 340.07 390.379 339.98C389.536 339.928 388.691 340.02 387.879 340.25C388.182 339.546 388.397 338.807 388.519 338.05C389.159 336.92 394.149 337.83 398.519 336.88C401.809 336.16 403.649 333.58 405.099 332.88C414.779 327.93 427.749 324.5 434.099 322.17C441.999 319.24 441.109 315.19 439.649 308.43Z" fill="#C8856A"/>
<path d="M377.899 334.62C378.045 333.005 378.591 331.451 379.489 330.1C377.809 330.79 376.829 335.1 376.829 335.1L377.899 334.62Z" fill="#AF6152"/>
<path d="M380.2 341.48C380.018 340.582 379.951 339.665 380 338.75C380.03 337.84 380.11 336.932 380.24 336.03C380.343 335.116 380.551 334.217 380.86 333.35C381.156 332.467 381.693 331.684 382.41 331.09C382.11 331.425 381.872 331.811 381.71 332.23C381.517 332.631 381.363 333.05 381.25 333.48C381.024 334.341 380.86 335.216 380.76 336.1C380.62 336.99 380.52 337.89 380.4 338.78C380.283 339.676 380.216 340.577 380.2 341.48Z" fill="#AF6152"/>
<path d="M383.229 342.53C383.094 341.643 383.054 340.745 383.109 339.85C383.155 338.955 383.252 338.064 383.399 337.18C383.539 336.292 383.747 335.416 384.019 334.56C384.226 333.675 384.664 332.86 385.289 332.2C385.03 332.557 384.844 332.962 384.739 333.39C384.609 333.81 384.499 334.23 384.409 334.66C384.219 335.52 384.059 336.39 383.919 337.26C383.629 339 383.359 340.75 383.229 342.53Z" fill="#AF6152"/>
<path d="M390.329 340C389.955 340.022 389.586 340.089 389.229 340.2C388.879 340.3 388.629 340.49 388.229 340.66L388.399 340.36C388.43 340.538 388.413 340.721 388.349 340.89C388.295 341.046 388.214 341.192 388.109 341.32C387.921 341.561 387.668 341.741 387.379 341.84C387.547 341.62 387.692 341.382 387.809 341.13C387.847 341.016 387.877 340.899 387.899 340.78C387.914 340.677 387.914 340.573 387.899 340.47V340.27L388.099 340.17C388.417 340.032 388.754 339.945 389.099 339.91C389.509 339.823 389.936 339.854 390.329 340Z" fill="#AF6152"/>
<path d="M449.59 315.15L448.76 319.81L397.83 350C395.957 351.485 394.409 353.339 393.281 355.446C392.153 357.552 391.468 359.868 391.27 362.25L385 427.46C384.977 427.661 385.015 427.864 385.11 428.042C385.204 428.221 385.351 428.366 385.53 428.46C385.695 428.572 385.89 428.632 386.09 428.632C386.289 428.632 386.484 428.572 386.65 428.46L407 416.6V412.33L390.12 422.2L397.54 366.41C397.948 363.983 398.864 361.67 400.227 359.621C401.59 357.573 403.369 355.834 405.45 354.52L450.72 325.89C455.8 322.82 453.88 317.88 449.59 315.15Z" fill="#455A64"/>
<path d="M403.569 405.8V410.88C403.561 415.716 404.898 420.459 407.429 424.58C407.619 424.89 407.809 425.19 408.009 425.49L408.079 425.58C408.249 425.84 408.429 426.09 408.609 426.34C410.756 429.279 413.491 431.738 416.64 433.563C419.788 435.388 423.282 436.538 426.899 436.94H427.109L427.489 436.99C427.749 436.99 428.009 436.99 428.269 437.05H428.559H429.459H429.779C434.399 436.98 439.579 435.46 445.059 432.29L447.289 431C466.589 419.87 482.229 392.77 482.229 370.48V367.9C482.229 367.41 482.229 366.9 482.229 366.44V365.44C482.226 361.093 481.133 356.816 479.049 353V352.94C478.959 352.77 478.879 352.61 478.789 352.46C478.699 352.31 478.649 352.22 478.589 352.1C478.399 351.77 478.199 351.46 477.999 351.1C477.889 350.94 477.789 350.78 477.669 350.62L477.389 350.23C477.259 350.04 477.119 349.85 476.969 349.67L476.719 349.36C474.563 346.574 471.865 344.252 468.789 342.534C465.714 340.816 462.323 339.736 458.819 339.36C458.029 339.272 457.235 339.226 456.439 339.22H455.999C451.379 339.28 446.199 340.81 440.719 343.97L438.489 345.27C419.209 356.41 403.569 383.51 403.569 405.8ZM416.669 407.08C416.669 388.27 429.879 365.39 446.179 355.98C462.479 346.57 475.679 354.2 475.679 372.98C475.679 391.76 462.469 414.67 446.179 424.08C429.889 433.49 416.669 425.9 416.669 407.08Z" fill="#455A64"/>
<path d="M410.12 409.58V412.16C410.12 423.16 413.94 430.95 420.12 434.66C420.23 434.66 420.32 434.78 420.43 434.83C420.486 434.871 420.546 434.904 420.61 434.93L420.74 435C420.898 435.093 421.062 435.177 421.23 435.25C421.55 435.42 421.88 435.57 422.23 435.71L422.7 435.9L423.25 436.1L423.76 436.26C424.164 436.394 424.575 436.508 424.99 436.6C425.2 436.66 425.42 436.7 425.64 436.74C425.86 436.78 426.09 436.83 426.32 436.86C426.55 436.89 426.83 436.94 427.09 436.96L427.47 437.01C427.73 437.01 427.99 437.01 428.25 437.07H428.54H429.44C434.14 437.07 439.44 435.54 445.04 432.3L447.27 431.01C466.57 419.88 482.21 392.78 482.21 370.49V367.91C482.21 367.42 482.21 366.91 482.21 366.45C482.21 365.99 482.21 365.64 482.15 365.24C482.15 365.1 482.15 364.95 482.15 364.81C482.15 364.44 482.09 364.09 482.06 363.73V363.53C482.06 363.11 481.98 362.71 481.92 362.31C481.86 361.91 481.82 361.58 481.76 361.22C481.76 361.01 481.68 360.8 481.65 360.6C481.57 360.17 481.48 359.73 481.39 359.31C481.3 358.89 481.21 358.57 481.11 358.21C480.93 357.54 480.74 356.88 480.52 356.21C480.4 355.87 480.27 355.53 480.14 355.21C479.9 354.57 479.62 353.96 479.33 353.37L479.09 352.88C479 352.71 478.92 352.55 478.83 352.4C478.74 352.25 478.69 352.16 478.63 352.04C478.44 351.71 478.24 351.4 478.04 351.04C477.93 350.88 477.83 350.72 477.71 350.56L477.43 350.17C477.3 349.98 477.16 349.79 477.01 349.61C476.86 349.43 476.72 349.24 476.56 349.07C476.4 348.9 476.26 348.71 476.1 348.54C475.788 348.186 475.454 347.852 475.1 347.54C474.94 347.38 474.77 347.23 474.6 347.08C474.26 346.78 473.91 346.5 473.55 346.24L473 345.86L472.43 345.49L472.31 345.42L471.83 345.13C465.52 341.6 456.83 342.18 447.32 347.69L445.09 348.98C425.77 360.2 410.12 387.3 410.12 409.58ZM416.67 407.08C416.67 388.27 429.88 365.39 446.18 355.98C462.48 346.57 475.68 354.2 475.68 372.98C475.68 391.76 462.47 414.67 446.18 424.08C429.89 433.49 416.67 425.9 416.67 407.08Z" fill="#37474F"/>
<path d="M424.229 419.29C428.899 424.84 436.979 425.63 446.179 420.29C460.659 411.93 472.399 391.6 472.399 374.87C472.399 367.4 470.049 361.87 466.159 358.87C468.879 362.07 470.449 366.87 470.449 372.98C470.449 389.7 458.709 410.04 444.219 418.4C436.219 423.07 428.999 423.06 424.229 419.29Z" fill="#005C8A"/>
<path opacity="0.2" d="M424.229 419.29C428.899 424.84 436.979 425.63 446.179 420.29C460.659 411.93 472.399 391.6 472.399 374.87C472.399 367.4 470.049 361.87 466.159 358.87C468.879 362.07 470.449 366.87 470.449 372.98C470.449 389.7 458.709 410.04 444.219 418.4C436.219 423.07 428.999 423.06 424.229 419.29Z" fill="black"/>
<path d="M416.67 407.08C416.67 425.9 429.88 433.52 446.18 424.08C462.48 414.64 475.68 391.79 475.68 372.98C475.68 354.17 462.47 346.54 446.18 355.98C429.89 365.42 416.67 388.27 416.67 407.08ZM419.95 405.19C419.95 388.47 431.69 368.13 446.18 359.77C460.67 351.41 472.4 358.19 472.4 374.91C472.4 391.63 460.66 412 446.18 420.33C431.7 428.66 420 421.91 420 405.19H419.95Z" fill="#005C8A"/>
<path d="M420.84 396.87C420.9 396.58 420.96 396.28 421.03 395.98L443.87 389.86L444.39 389.1L427.6 379.4C427.73 379.17 427.87 378.94 428.01 378.71L444.8 388.4L445.2 387.57L439.14 365C439.36 364.8 439.58 364.59 439.81 364.4L445.81 386.65L446.62 385.73L452.44 357L453.32 356.76L447.53 385.03L448.45 384.89L464.19 357.63C464.43 357.75 464.67 357.88 464.9 358.02L449.15 385.29L449.49 386.16L471.3 366.82C471.38 367.1 471.47 367.39 471.54 367.68L449.42 387.29L449.03 388.45L471.67 382.38C471.62 382.68 471.56 382.97 471.5 383.27L448.5 389.43L447.98 390.2L465.1 400.08L464.71 400.78L447.58 390.9L447.18 391.73L453.39 415L452.71 415.61L446.58 392.73L445.77 393.65L439.77 423.13L438.9 423.35L444.85 394.27L443.93 394.41L427.85 422.27L427.16 421.85L443.2 394L442.86 393.14L420.86 412.63C420.78 412.35 420.71 412.05 420.64 411.75L442.93 392L443.32 390.85L420.84 396.87Z" fill="#EBEBEB"/>
<path d="M434.819 394.87C434.819 397.95 435.889 400.13 437.609 401.17C438.149 401.49 438.609 401.7 439.049 401.98C440.01 402.571 441.136 402.834 442.259 402.73H442.309C442.545 402.707 442.778 402.67 443.009 402.62H443.229C443.409 402.62 443.599 402.52 443.789 402.46C443.925 402.431 444.058 402.395 444.189 402.35L444.579 402.2L445.169 401.96C445.512 401.804 445.845 401.631 446.169 401.44C451.599 398.3 455.999 390.67 455.999 384.44C456.003 384.076 455.986 383.712 455.949 383.35C455.949 383.23 455.949 383.11 455.949 382.99C455.949 382.87 455.889 382.55 455.849 382.35C455.827 382.204 455.793 382.061 455.749 381.92C455.749 381.76 455.679 381.59 455.629 381.44C455.579 381.29 455.529 381.14 455.469 380.99C455.409 380.84 455.379 380.74 455.329 380.62C455.261 380.466 455.184 380.316 455.099 380.17L454.959 379.9C454.864 379.745 454.761 379.594 454.649 379.45L454.519 379.27C454.397 379.12 454.267 378.976 454.129 378.84L454.029 378.74C453.878 378.599 453.718 378.469 453.549 378.35L453.479 378.3C453.349 378.22 453.229 378.13 453.099 378.06C452.619 377.78 452.169 377.57 451.799 377.34C450.009 376.22 447.499 376.34 444.709 377.93C439.229 381 434.819 388.6 434.819 394.87ZM447.169 396.92C446.349 395.34 446.169 392.23 447.169 391.05C448.169 389.87 448.169 391.6 450.709 390.27C451.301 389.97 451.876 389.636 452.429 389.27C451.499 391.49 449.129 395.47 447.429 396.79C447.345 396.838 447.258 396.881 447.169 396.92ZM441.249 384.81C441.271 384.713 441.304 384.619 441.349 384.53C441.919 383.35 445.579 380.29 447.779 379.53C447.899 381.47 446.429 385.59 445.159 386.88C444.985 386.565 444.725 386.305 444.409 386.13L442.899 385.27C442.765 385.195 442.624 385.131 442.479 385.08C442.079 384.95 441.667 384.86 441.249 384.81ZM451.379 379.13C452.539 380.532 453.144 382.311 453.079 384.13C452.869 386 449.729 387.88 447.789 388.19C447.869 387.19 449.119 386.77 449.939 383.79C450.619 381.35 450.559 379.49 451.379 379.13ZM439.619 399.89L439.519 399.77C438.739 398.53 441.759 394.36 443.769 392.77C443.513 393.693 443.513 394.667 443.769 395.59C444.289 397.53 445.429 398.44 444.399 399.38C443.669 400 441.309 400.34 439.619 399.89ZM437.619 395.84C437.673 393.309 438.241 390.815 439.289 388.51C439.598 387.996 440.079 387.608 440.647 387.416C441.214 387.224 441.832 387.239 442.389 387.46C442.695 387.695 442.924 388.015 443.047 388.38C443.169 388.745 443.181 389.138 443.079 389.51C442.569 391.04 441.719 390.06 439.579 392.91C438.769 394 438.129 395.08 437.619 395.84Z" fill="#E0E0E0"/>
<path opacity="0.2" d="M434.819 394.87C434.819 397.95 435.889 400.13 437.609 401.17C438.149 401.49 438.609 401.7 439.049 401.98C440.01 402.571 441.136 402.834 442.259 402.73H442.309C442.545 402.707 442.778 402.67 443.009 402.62H443.229C443.409 402.62 443.599 402.52 443.789 402.46C443.925 402.431 444.058 402.395 444.189 402.35L444.579 402.2L445.169 401.96C445.512 401.804 445.845 401.631 446.169 401.44C451.599 398.3 455.999 390.67 455.999 384.44C456.003 384.076 455.986 383.712 455.949 383.35C455.949 383.23 455.949 383.11 455.949 382.99C455.949 382.87 455.889 382.55 455.849 382.35C455.827 382.204 455.793 382.061 455.749 381.92C455.749 381.76 455.679 381.59 455.629 381.44C455.579 381.29 455.529 381.14 455.469 380.99C455.409 380.84 455.379 380.74 455.329 380.62C455.261 380.466 455.184 380.316 455.099 380.17L454.959 379.9C454.864 379.745 454.761 379.594 454.649 379.45L454.519 379.27C454.397 379.12 454.267 378.976 454.129 378.84L454.029 378.74C453.878 378.599 453.718 378.469 453.549 378.35L453.479 378.3C453.349 378.22 453.229 378.13 453.099 378.06C452.619 377.78 452.169 377.57 451.799 377.34C450.009 376.22 447.499 376.34 444.709 377.93C439.229 381 434.819 388.6 434.819 394.87ZM447.169 396.92C446.349 395.34 446.169 392.23 447.169 391.05C448.169 389.87 448.169 391.6 450.709 390.27C451.301 389.97 451.876 389.636 452.429 389.27C451.499 391.49 449.129 395.47 447.429 396.79C447.345 396.838 447.258 396.881 447.169 396.92ZM441.249 384.81C441.271 384.713 441.304 384.619 441.349 384.53C441.919 383.35 445.579 380.29 447.779 379.53C447.899 381.47 446.429 385.59 445.159 386.88C444.985 386.565 444.725 386.305 444.409 386.13L442.899 385.27C442.765 385.195 442.624 385.131 442.479 385.08C442.079 384.95 441.667 384.86 441.249 384.81ZM451.379 379.13C452.539 380.532 453.144 382.311 453.079 384.13C452.869 386 449.729 387.88 447.789 388.19C447.869 387.19 449.119 386.77 449.939 383.79C450.619 381.35 450.559 379.49 451.379 379.13ZM439.619 399.89L439.519 399.77C438.739 398.53 441.759 394.36 443.769 392.77C443.513 393.693 443.513 394.667 443.769 395.59C444.289 397.53 445.429 398.44 444.399 399.38C443.669 400 441.309 400.34 439.619 399.89ZM437.619 395.84C437.673 393.309 438.241 390.815 439.289 388.51C439.598 387.996 440.079 387.608 440.647 387.416C441.214 387.224 441.832 387.239 442.389 387.46C442.695 387.695 442.924 388.015 443.047 388.38C443.169 388.745 443.181 389.138 443.079 389.51C442.569 391.04 441.719 390.06 439.579 392.91C438.769 394 438.129 395.08 437.619 395.84Z" fill="black"/>
<path d="M436.35 395.73C436.35 402 440.74 404.54 446.18 401.41C451.62 398.28 456.01 390.64 456.01 384.41C456.01 378.18 451.61 375.6 446.18 378.73C440.75 381.86 436.35 389.46 436.35 395.73ZM446.2 388.09C445.03 388.57 445.97 386.64 443.98 385.94C442.42 385.38 440.7 385.88 441.35 384.53C442 383.18 446.67 379.39 448.61 379.36C450.55 379.33 447.91 387.38 446.2 388.09ZM454.59 384.97C454.29 387.62 448.1 390.31 447.81 388.51C447.6 387.28 449.03 387.07 449.94 383.78C450.66 381.19 450.54 379.23 451.54 379.06C452.54 378.89 454.89 382.33 454.59 385V384.97ZM447.19 391.05C448.19 389.8 448.19 391.6 450.73 390.27C452.73 389.27 454.37 387.52 454.35 388.76C454.33 390 451.1 395.93 448.98 397.58C446.86 399.23 445.66 392.86 447.19 391.05ZM445.19 392.19C446.04 392.65 444.58 393.98 445.24 396.44C445.76 398.38 446.9 399.29 445.88 400.23C444.86 401.17 440.52 401.39 439.51 399.77C438.5 398.15 444 391.52 445.2 392.19H445.19ZM437.85 397.62C437.24 396.95 437.79 391.16 439.28 388.51C440.77 385.86 445.34 388.13 444.58 390.36C444.06 391.89 443.21 390.91 441.07 393.76C439.4 396 438.46 398.28 437.86 397.62H437.85Z" fill="#E0E0E0"/>
<path d="M446.18 393.52C444.52 394.52 443.18 393.71 443.18 391.79C443.235 390.747 443.536 389.732 444.057 388.827C444.579 387.921 445.306 387.152 446.18 386.58C447.84 385.58 449.18 386.4 449.18 388.31C449.125 389.353 448.824 390.369 448.303 391.274C447.782 392.179 447.054 392.949 446.18 393.52Z" fill="#455A64"/>
</svg>
