<svg width="500" height="500" viewBox="0 0 500 500" fill="none" xmlns="http://www.w3.org/2000/svg">
<path d="M500 382.4H0V382.65H500V382.4Z" fill="#EBEBEB"/>
<path d="M449.9 398.49H428.22V398.74H449.9V398.49Z" fill="#EBEBEB"/>
<path d="M344.67 393.31H310.56V393.56H344.67V393.31Z" fill="#EBEBEB"/>
<path d="M441.12 389.21H396.59V389.46H441.12V389.21Z" fill="#EBEBEB"/>
<path d="M173.02 394.25H161.88V394.5H173.02V394.25Z" fill="#EBEBEB"/>
<path d="M152.97 394.25H114.58V394.5H152.97V394.25Z" fill="#EBEBEB"/>
<path d="M94.0096 390.03H66.3096V390.28H94.0096V390.03Z" fill="#EBEBEB"/>
<path d="M237 337.8H43.91C42.3973 337.797 40.9475 337.195 39.8788 336.124C38.8102 335.054 38.21 333.603 38.21 332.09V60.66C38.2231 59.156 38.8292 57.718 39.8964 56.6582C40.9637 55.5985 42.4059 55.0026 43.91 55H237C238.514 55 239.967 55.6016 241.038 56.6724C242.108 57.7433 242.71 59.1956 242.71 60.71V332.09C242.71 333.604 242.108 335.057 241.038 336.128C239.967 337.198 238.514 337.8 237 337.8ZM43.91 55.2C42.4636 55.2026 41.0774 55.7791 40.0556 56.8027C39.0338 57.8264 38.46 59.2136 38.46 60.66V332.09C38.46 333.536 39.0338 334.924 40.0556 335.947C41.0774 336.971 42.4636 337.547 43.91 337.55H237C238.447 337.547 239.834 336.971 240.858 335.948C241.881 334.924 242.457 333.537 242.46 332.09V60.66C242.457 59.2127 241.881 57.8255 240.858 56.8021C239.834 55.7787 238.447 55.2026 237 55.2H43.91Z" fill="#EBEBEB"/>
<path d="M453.31 337.8H260.21C258.696 337.797 257.246 337.195 256.175 336.125C255.105 335.054 254.503 333.604 254.5 332.09V60.66C254.516 59.1551 255.124 57.7171 256.193 56.6576C257.262 55.5981 258.705 55.0025 260.21 55H453.31C454.812 55.0052 456.252 55.6022 457.317 56.6617C458.382 57.7212 458.987 59.1578 459 60.66V332.09C459 333.601 458.401 335.05 457.335 336.121C456.268 337.191 454.821 337.795 453.31 337.8ZM260.21 55.2C258.763 55.2026 257.375 55.7787 256.352 56.8021C255.329 57.8255 254.753 59.2127 254.75 60.66V332.09C254.753 333.537 255.329 334.924 256.352 335.948C257.375 336.971 258.763 337.547 260.21 337.55H453.31C454.757 337.547 456.145 336.971 457.168 335.948C458.191 334.924 458.767 333.537 458.77 332.09V60.66C458.767 59.2127 458.191 57.8255 457.168 56.8021C456.145 55.7787 454.757 55.2026 453.31 55.2H260.21Z" fill="#EBEBEB"/>
<path d="M115 174.63C120.545 174.63 125.864 172.427 129.785 168.506C133.707 164.584 135.91 159.266 135.91 153.72C135.91 148.174 133.707 142.856 129.785 138.934C125.864 135.013 120.545 132.81 115 132.81H112.43V174.63H115Z" fill="#E0E0E0"/>
<path d="M112.41 174.63C123.958 174.63 133.32 165.268 133.32 153.72C133.32 142.172 123.958 132.81 112.41 132.81C100.862 132.81 91.5 142.172 91.5 153.72C91.5 165.268 100.862 174.63 112.41 174.63Z" fill="#F5F5F5"/>
<path d="M111.45 156.34C104.024 156.34 96.9022 153.39 91.6512 148.139C86.4002 142.888 83.4502 135.766 83.4502 128.34V111.63C83.4502 110.932 83.7273 110.264 84.2205 109.77C84.7137 109.277 85.3827 109 86.0802 109C86.7777 109 87.4467 109.277 87.9399 109.77C88.4331 110.264 88.7102 110.932 88.7102 111.63V128.35C88.7155 134.378 91.1116 140.157 95.3729 144.42C99.6342 148.683 105.413 151.082 111.44 151.09C111.799 151.068 112.158 151.119 112.495 151.241C112.833 151.363 113.142 151.553 113.404 151.799C113.665 152.045 113.874 152.342 114.016 152.671C114.159 153.001 114.232 153.356 114.232 153.715C114.232 154.074 114.159 154.429 114.016 154.759C113.874 155.088 113.665 155.385 113.404 155.631C113.142 155.877 112.833 156.067 112.495 156.189C112.158 156.311 111.799 156.362 111.44 156.34H111.45Z" fill="#E0E0E0"/>
<path d="M62.8302 126.35H109.35C110.094 126.35 110.828 126.179 111.496 125.851C112.163 125.523 112.747 125.046 113.201 124.456C113.655 123.867 113.968 123.181 114.115 122.452C114.262 121.723 114.24 120.969 114.05 120.25L110 105C109.727 103.964 109.119 103.047 108.271 102.393C107.422 101.738 106.382 101.382 105.31 101.38H66.8702C65.7975 101.382 64.7553 101.737 63.9054 102.392C63.0555 103.046 62.4456 103.963 62.1702 105L58.1702 120.23C57.9755 120.948 57.9484 121.7 58.0909 122.43C58.2335 123.16 58.5419 123.847 58.9923 124.438C59.4427 125.03 60.023 125.51 60.6885 125.841C61.354 126.173 62.0868 126.347 62.8302 126.35Z" fill="#F5F5F5"/>
<path d="M410.28 174.63C415.826 174.63 421.144 172.427 425.066 168.506C428.987 164.584 431.19 159.266 431.19 153.72C431.19 148.174 428.987 142.856 425.066 138.934C421.144 135.013 415.826 132.81 410.28 132.81H407.71V174.63H410.28Z" fill="#E0E0E0"/>
<path d="M407.71 174.63C419.258 174.63 428.62 165.268 428.62 153.72C428.62 142.172 419.258 132.81 407.71 132.81C396.162 132.81 386.8 142.172 386.8 153.72C386.8 165.268 396.162 174.63 407.71 174.63Z" fill="#F5F5F5"/>
<path d="M406.75 156.34C399.324 156.34 392.202 153.39 386.951 148.139C381.7 142.888 378.75 135.766 378.75 128.34V111.63C378.75 110.932 379.027 110.264 379.52 109.77C380.014 109.277 380.682 109 381.38 109C382.078 109 382.746 109.277 383.24 109.77C383.733 110.264 384.01 110.932 384.01 111.63V128.35C384.015 134.378 386.411 140.157 390.673 144.42C394.934 148.683 400.712 151.082 406.74 151.09C407.098 151.068 407.457 151.119 407.795 151.241C408.133 151.363 408.442 151.553 408.704 151.799C408.965 152.045 409.174 152.342 409.316 152.671C409.459 153.001 409.532 153.356 409.532 153.715C409.532 154.074 409.459 154.429 409.316 154.759C409.174 155.088 408.965 155.385 408.704 155.631C408.442 155.877 408.133 156.067 407.795 156.189C407.457 156.311 407.098 156.362 406.74 156.34H406.75Z" fill="#E0E0E0"/>
<path d="M358.13 126.35H404.65C405.394 126.35 406.128 126.179 406.795 125.851C407.463 125.523 408.046 125.046 408.5 124.456C408.954 123.867 409.267 123.181 409.414 122.452C409.561 121.723 409.539 120.969 409.35 120.25L405.35 105.02C405.076 103.984 404.468 103.067 403.62 102.413C402.772 101.758 401.731 101.402 400.66 101.4H362.17C361.097 101.402 360.055 101.757 359.205 102.412C358.355 103.066 357.745 103.983 357.47 105.02L353.47 120.25C353.278 120.966 353.254 121.717 353.398 122.444C353.543 123.171 353.852 123.855 354.302 124.444C354.752 125.033 355.331 125.511 355.994 125.842C356.658 126.172 357.388 126.346 358.13 126.35Z" fill="#F5F5F5"/>
<path d="M133.98 315.86H149.19V256.93H133.98V315.86Z" fill="#E6E6E6"/>
<path d="M92.75 315.85H143.22L150.84 246.88H100.37L92.75 315.85Z" fill="#F0F0F0"/>
<path d="M87.2803 315.85H139.42L147.04 246.88H94.9103L87.2803 315.85Z" fill="#F5F5F5"/>
<path d="M135.65 310.42L142.07 252.32H98.67L92.25 310.42H135.65Z" fill="white"/>
<path d="M126.69 296.33L127 294C128.61 279.42 119.51 266.43 107.69 266.43L107.42 268.8C105.81 283.37 114.91 296.36 126.74 296.36L126.69 296.33Z" fill="#F5F5F5"/>
<path d="M59.0897 382.4H103.93L103.93 315.85H59.0897L59.0897 382.4Z" fill="#E6E6E6"/>
<path d="M63.5901 382.4H59.0801V369.57H68.3201L63.5901 382.4Z" fill="#F0F0F0"/>
<path d="M184.76 382.4H229.6V315.85H184.76V382.4Z" fill="#E6E6E6"/>
<path d="M59.0804 374.53H188.69V315.86H59.0804V374.53Z" fill="#F0F0F0"/>
<path d="M184.18 382.4H188.69V369.57H179.45L184.18 382.4Z" fill="#F0F0F0"/>
<path d="M62.5804 343.2H185.19V319.52H62.5804V343.2Z" fill="#E6E6E6"/>
<path d="M115.71 335H132.06C135.575 335.001 139.054 334.286 142.283 332.896C145.512 331.507 148.424 329.473 150.84 326.92H96.9297C99.3469 329.472 102.259 331.505 105.488 332.894C108.717 334.283 112.195 335 115.71 335Z" fill="#F0F0F0"/>
<path d="M62.5804 370.7H185.19V347.02H62.5804V370.7Z" fill="#E6E6E6"/>
<path d="M115.71 362.46H132.06C135.575 362.461 139.054 361.746 142.283 360.356C145.512 358.967 148.424 356.933 150.84 354.38H96.9297C99.3469 356.932 102.259 358.965 105.488 360.354C108.717 361.743 112.195 362.46 115.71 362.46Z" fill="#F0F0F0"/>
<path d="M180.48 313.14H181.64C181.64 310.75 181.64 304.7 181.76 290.83C181.97 265.68 182.37 264.15 182.37 264.15L179.61 275.76C177.86 288.61 180.12 301.53 180.48 313.14Z" fill="#E6E6E6"/>
<path d="M178.19 274C174.19 269.27 165.74 267.89 157.06 266.71C153.65 266.25 166.01 274.04 172.06 279.57C176.76 283.87 179.76 285.06 181.06 289.34C181.72 284 181.61 278.11 178.19 274Z" fill="#E6E6E6"/>
<path d="M183.46 282.48C187.46 277.75 195.91 276.38 204.59 275.2C208 274.74 195.59 282.53 189.59 288.06C184.89 292.36 181.89 293.55 180.59 297.83C179.93 292.49 180 286.56 183.46 282.48Z" fill="#E6E6E6"/>
<path d="M181.76 263C184.76 257.34 192.22 252 200.63 250C203.93 249.21 192.98 260.44 188.82 267.69C185.59 273.31 181.31 279.93 180.64 284.69C179.64 275.31 178.78 268.69 181.76 263Z" fill="#E6E6E6"/>
<path d="M181.4 315.85C177.86 315.85 174.93 314.08 174.72 311.8L174.13 307.92H188.68L188.08 311.8C187.88 314.08 185 315.85 181.4 315.85Z" fill="#F0F0F0"/>
<path d="M189.62 309.41H173.19L172.72 305.08H190.09L189.62 309.41Z" fill="#F0F0F0"/>
<path d="M169.54 226.72L329.75 226.72V80.59L169.54 80.59L169.54 226.72Z" fill="#E6E6E6"/>
<path d="M165.94 226.72L328.18 226.72V80.59L165.94 80.59L165.94 226.72Z" fill="#F5F5F5"/>
<path d="M321.7 220.18V87.14L172.4 87.14V220.18H321.7Z" fill="#FAFAFA"/>
<path d="M303.39 220.18L244.63 87.14H224.67L283.43 220.18H303.39Z" fill="white"/>
<path d="M277.77 220.18L219.01 87.14H205.27L264.03 220.18H277.77Z" fill="white"/>
<path d="M227.84 220.17V87.13H220.12V220.17H227.84Z" fill="#E6E6E6"/>
<path d="M279.16 220.17V87.13H271.44V220.17H279.16Z" fill="#E6E6E6"/>
<path d="M226.45 224.33V82.27H216.69V224.33H226.45Z" fill="#F5F5F5"/>
<path d="M277.77 224.33V82.27H268.01V224.33H277.77Z" fill="#F5F5F5"/>
<path d="M173.1 220.18V87.14H172.41V220.18H173.1Z" fill="#E6E6E6"/>
<path d="M163.22 72.17H336.78C337.002 72.1726 337.214 72.2619 337.371 72.4189C337.528 72.5759 337.617 72.788 337.62 73.01C337.617 73.231 337.528 73.4421 337.37 73.5975C337.213 73.7529 337.001 73.84 336.78 73.84H163.22C162.999 73.84 162.787 73.7529 162.629 73.5975C162.472 73.4421 162.383 73.231 162.38 73.01C162.382 72.788 162.472 72.5759 162.629 72.4189C162.786 72.2619 162.998 72.1726 163.22 72.17Z" fill="#E6E6E6"/>
<path d="M329.75 77.68C330.048 77.6774 330.333 77.5571 330.543 77.3455C330.752 77.1339 330.87 76.848 330.87 76.55V74.13C330.871 73.9821 330.843 73.8354 330.788 73.6983C330.732 73.5613 330.65 73.4366 330.546 73.3316C330.441 73.2265 330.318 73.1431 330.181 73.0862C330.045 73.0293 329.898 73 329.75 73C329.452 73 329.166 73.1177 328.955 73.3274C328.743 73.5372 328.623 73.822 328.62 74.12V76.54C328.62 76.8406 328.739 77.1291 328.95 77.3426C329.162 77.5561 329.45 77.6774 329.75 77.68Z" fill="#E6E6E6"/>
<path d="M175.8 77.68C176.099 77.6774 176.385 77.5575 176.596 77.3461C176.807 77.1348 176.927 76.8489 176.93 76.55V74.13C176.93 73.8303 176.811 73.5429 176.599 73.331C176.387 73.1191 176.099 73 175.8 73C175.503 73 175.218 73.118 175.008 73.328C174.798 73.5381 174.68 73.823 174.68 74.12V76.54C174.678 76.6884 174.706 76.8356 174.762 76.9732C174.817 77.1108 174.9 77.2361 175.004 77.342C175.108 77.4478 175.231 77.5322 175.368 77.5902C175.505 77.6482 175.651 77.6787 175.8 77.68Z" fill="#E6E6E6"/>
<path opacity="0.6" d="M163.48 187.44L325.61 187.44V73L163.48 73V187.44Z" fill="#E0E0E0"/>
<path d="M340.29 259.97H312.33C309.359 259.97 306.95 262.379 306.95 265.35V278.29C306.95 281.261 309.359 283.67 312.33 283.67H340.29C343.261 283.67 345.67 281.261 345.67 278.29V265.35C345.67 262.379 343.261 259.97 340.29 259.97Z" fill="#FAFAFA"/>
<path d="M343.86 255.59H308.76C307.761 255.59 306.95 256.4 306.95 257.4V258.86C306.95 259.86 307.761 260.67 308.76 260.67H343.86C344.86 260.67 345.67 259.86 345.67 258.86V257.4C345.67 256.4 344.86 255.59 343.86 255.59Z" fill="#E6E6E6"/>
<path d="M307.52 310C307.52 310 308.03 326.67 327.45 326.67C346.87 326.67 347.38 310 347.38 310H307.52Z" fill="#F0F0F0"/>
<path d="M351.8 310C351.8 310 352.31 326.67 371.73 326.67C391.15 326.67 391.66 310 391.66 310H351.8Z" fill="#F0F0F0"/>
<path d="M382.04 249.24H343.64C339.553 249.24 336.24 252.553 336.24 256.64V276.28C336.24 280.367 339.553 283.68 343.64 283.68H382.04C386.127 283.68 389.44 280.367 389.44 276.28V256.64C389.44 252.553 386.127 249.24 382.04 249.24Z" fill="#F0F0F0"/>
<path d="M386.96 243.22H338.72C337.351 243.22 336.24 244.33 336.24 245.7V247.72C336.24 249.09 337.351 250.2 338.72 250.2H386.96C388.33 250.2 389.44 249.09 389.44 247.72V245.7C389.44 244.33 388.33 243.22 386.96 243.22Z" fill="#F5F5F5"/>
<path d="M292.89 382.4H297.93V299.76H292.89V382.4Z" fill="#E6E6E6"/>
<path d="M438.42 283.67H411.13V299.75H438.42V283.67Z" fill="#E6E6E6"/>
<path d="M275.44 299.76H411.12V283.68H275.44V299.76Z" fill="#F5F5F5"/>
<path d="M438.42 326.62H411.13V342.7H438.42V326.62Z" fill="#E6E6E6"/>
<path d="M275.44 342.7H411.12V326.62H275.44V342.7Z" fill="#F5F5F5"/>
<path d="M428.57 382.4H433.61V299.76H428.57V382.4Z" fill="#E6E6E6"/>
<path d="M406.09 382.4H411.13V299.76H406.09V382.4Z" fill="#F5F5F5"/>
<path d="M275.44 382.4H280.48V299.76H275.44V382.4Z" fill="#F5F5F5"/>
<path d="M250 427.56C357.083 427.56 443.89 422.492 443.89 416.24C443.89 409.988 357.083 404.92 250 404.92C142.918 404.92 56.1104 409.988 56.1104 416.24C56.1104 422.492 142.918 427.56 250 427.56Z" fill="#F5F5F5"/>
<path d="M260.41 365.5H132.84C130.788 365.471 128.824 364.667 127.34 363.25C125.856 361.833 124.963 359.908 124.84 357.86L113.4 136.31C113.336 135.325 113.477 134.337 113.813 133.408C114.149 132.48 114.674 131.631 115.354 130.914C116.033 130.198 116.854 129.63 117.763 129.245C118.673 128.861 119.652 128.668 120.64 128.68H248.21C250.26 128.707 252.225 129.508 253.709 130.923C255.192 132.339 256.086 134.263 256.21 136.31L267.63 357.86C267.693 358.844 267.553 359.831 267.218 360.759C266.883 361.686 266.36 362.535 265.683 363.252C265.005 363.969 264.188 364.538 263.28 364.925C262.373 365.312 261.396 365.508 260.41 365.5Z" fill="#005C8A"/>
<path opacity="0.8" d="M260.41 365.5H132.84C130.788 365.471 128.824 364.667 127.34 363.25C125.856 361.833 124.963 359.908 124.84 357.86L113.4 136.31C113.336 135.325 113.477 134.337 113.813 133.408C114.149 132.48 114.674 131.631 115.354 130.914C116.033 130.198 116.854 129.63 117.763 129.245C118.673 128.861 119.652 128.668 120.64 128.68H248.21C250.26 128.707 252.225 129.508 253.709 130.923C255.192 132.339 256.086 134.263 256.21 136.31L267.63 357.86C267.693 358.844 267.553 359.831 267.218 360.759C266.883 361.686 266.36 362.535 265.683 363.252C265.005 363.969 264.188 364.538 263.28 364.925C262.373 365.312 261.396 365.508 260.41 365.5Z" fill="white"/>
<path d="M235.62 121.46H221.51V122.46H235.62V121.46Z" fill="#005C8A"/>
<path d="M216.619 121.46H211.449V122.46H216.619V121.46Z" fill="#005C8A"/>
<path d="M265.899 351.44H143.899C141.935 351.421 140.05 350.658 138.625 349.306C137.2 347.953 136.341 346.111 136.219 344.15L125.299 132.25C125.239 131.307 125.373 130.361 125.695 129.473C126.017 128.584 126.519 127.772 127.17 127.086C127.821 126.401 128.606 125.857 129.477 125.49C130.347 125.122 131.284 124.938 132.229 124.95H254.229C256.194 124.972 258.077 125.737 259.5 127.091C260.923 128.446 261.781 130.289 261.899 132.25L272.819 344.15C272.88 345.092 272.745 346.036 272.424 346.923C272.103 347.811 271.601 348.622 270.952 349.306C270.302 349.991 269.518 350.534 268.648 350.901C267.779 351.268 266.843 351.452 265.899 351.44Z" fill="#005C8A"/>
<path d="M265.9 346.57H143.9C143.185 346.545 142.503 346.259 141.985 345.765C141.467 345.271 141.148 344.604 141.09 343.89L130.16 132C130.135 131.718 130.171 131.434 130.264 131.167C130.357 130.9 130.505 130.655 130.7 130.45C130.895 130.245 131.131 130.084 131.393 129.977C131.655 129.87 131.937 129.82 132.22 129.83H254.22C254.934 129.857 255.613 130.145 256.129 130.638C256.645 131.132 256.962 131.798 257.02 132.51L268 344.4C268.024 344.681 267.989 344.964 267.896 345.23C267.803 345.496 267.655 345.739 267.461 345.944C267.268 346.149 267.033 346.311 266.772 346.419C266.512 346.527 266.232 346.578 265.95 346.57H265.9ZM132.22 130.08C131.971 130.072 131.724 130.116 131.493 130.209C131.262 130.302 131.054 130.442 130.88 130.62C130.713 130.805 130.585 131.021 130.505 131.257C130.424 131.492 130.392 131.742 130.41 131.99L141.33 343.88C141.386 344.529 141.677 345.135 142.148 345.585C142.62 346.034 143.239 346.296 143.89 346.32H265.89C266.137 346.33 266.384 346.287 266.613 346.194C266.843 346.1 267.049 345.959 267.22 345.78C267.391 345.598 267.521 345.382 267.602 345.146C267.683 344.909 267.713 344.659 267.69 344.41L256.78 132.52C256.727 131.872 256.438 131.266 255.968 130.816C255.498 130.367 254.88 130.105 254.23 130.08H132.22Z" fill="white"/>
<path opacity="0.3" d="M223.226 207.056C237.102 192.816 236.198 169.431 221.208 154.822C206.217 140.214 182.816 139.914 168.939 154.154C155.063 168.393 155.967 191.779 170.958 206.387C185.948 220.996 209.35 221.295 223.226 207.056Z" fill="white"/>
<path d="M226 180.61C226.28 185.524 225.291 190.428 223.13 194.85C220.79 199.593 217.158 203.579 212.651 206.348C208.145 209.116 202.948 210.556 197.66 210.5C192.179 210.451 186.805 208.983 182.059 206.241C177.314 203.498 173.359 199.574 170.58 194.85C167.99 190.53 166.5 185.64 166.24 180.61C165.993 176.752 166.546 172.885 167.862 169.251C169.179 165.616 171.232 162.293 173.892 159.488C176.552 156.683 179.762 154.458 183.322 152.951C186.882 151.444 190.714 150.688 194.58 150.73C202.625 150.814 210.339 153.943 216.169 159.487C221.999 165.032 225.512 172.579 226 180.61Z" fill="white"/>
<path d="M223.1 194.85C220.76 199.593 217.128 203.579 212.621 206.348C208.115 209.116 202.918 210.556 197.63 210.5C192.149 210.451 186.774 208.983 182.029 206.241C177.284 203.498 173.329 199.574 170.55 194.85C178.149 189.602 187.175 186.81 196.41 186.85C205.892 186.886 215.161 189.664 223.1 194.85Z" fill="#005C8A"/>
<path d="M205.347 179.915C210.346 174.785 210.018 166.358 204.615 161.093C199.212 155.828 190.78 155.718 185.78 160.848C180.781 165.978 181.109 174.405 186.512 179.67C191.915 184.936 200.347 185.045 205.347 179.915Z" fill="#005C8A"/>
<path d="M248.41 269H152.88C152.048 268.991 151.25 268.668 150.647 268.095C150.044 267.521 149.68 266.741 149.63 265.91L148.91 251.91C148.885 251.512 148.943 251.113 149.079 250.738C149.216 250.363 149.428 250.02 149.703 249.731C149.978 249.442 150.31 249.213 150.678 249.058C151.045 248.903 151.441 248.825 151.84 248.83H247.37C248.2 248.838 248.997 249.161 249.6 249.732C250.202 250.303 250.567 251.081 250.62 251.91L251.34 265.91C251.366 266.309 251.31 266.709 251.174 267.085C251.038 267.461 250.826 267.805 250.551 268.096C250.275 268.386 249.943 268.616 249.575 268.772C249.206 268.927 248.81 269.005 248.41 269Z" fill="white"/>
<path opacity="0.3" d="M219.16 241.1H179.26C178.425 241.094 177.623 240.77 177.017 240.194C176.412 239.619 176.048 238.834 176 238L175.85 235C175.824 234.601 175.88 234.201 176.016 233.825C176.152 233.449 176.364 233.105 176.639 232.814C176.915 232.524 177.247 232.294 177.615 232.138C177.984 231.983 178.38 231.905 178.78 231.91H218.67C219.502 231.919 220.3 232.242 220.903 232.815C221.506 233.389 221.869 234.169 221.92 235L222.08 238C222.105 238.398 222.047 238.797 221.912 239.173C221.776 239.548 221.565 239.892 221.291 240.182C221.017 240.473 220.687 240.704 220.321 240.862C219.954 241.02 219.559 241.101 219.16 241.1Z" fill="black"/>
<path opacity="0.3" d="M234 336.31H174.23C172.814 336.293 171.458 335.741 170.432 334.765C169.407 333.79 168.788 332.463 168.7 331.05L168.35 324.15C168.314 323.472 168.417 322.794 168.653 322.157C168.888 321.52 169.251 320.937 169.719 320.445C170.187 319.953 170.75 319.561 171.374 319.294C171.998 319.027 172.67 318.889 173.35 318.89H233.1C234.515 318.907 235.871 319.459 236.897 320.435C237.922 321.41 238.541 322.737 238.63 324.15L238.98 331.05C239.015 331.726 238.912 332.403 238.678 333.039C238.444 333.674 238.083 334.256 237.617 334.748C237.151 335.239 236.591 335.632 235.969 335.9C235.347 336.169 234.677 336.308 234 336.31Z" fill="black"/>
<path d="M250.159 302.86H154.619C153.788 302.849 152.991 302.525 152.389 301.952C151.786 301.379 151.422 300.6 151.369 299.77L150.649 285.77C150.624 285.371 150.682 284.972 150.818 284.596C150.955 284.221 151.167 283.877 151.442 283.588C151.717 283.298 152.048 283.068 152.416 282.911C152.784 282.755 153.18 282.676 153.579 282.68H249.109C249.941 282.689 250.739 283.012 251.342 283.585C251.945 284.159 252.309 284.939 252.359 285.77L253.089 299.77C253.112 300.168 253.054 300.567 252.917 300.942C252.78 301.317 252.568 301.66 252.293 301.949C252.018 302.239 251.687 302.469 251.32 302.626C250.953 302.782 250.558 302.862 250.159 302.86Z" fill="white"/>
<path d="M164.999 258.91C165.027 259.352 164.963 259.795 164.812 260.211C164.66 260.627 164.425 261.007 164.12 261.328C163.815 261.649 163.447 261.904 163.039 262.076C162.631 262.249 162.192 262.335 161.749 262.33C160.829 262.319 159.948 261.96 159.282 261.326C158.616 260.691 158.215 259.828 158.159 258.91C158.13 258.469 158.193 258.026 158.343 257.61C158.493 257.194 158.728 256.813 159.032 256.492C159.336 256.171 159.704 255.916 160.111 255.744C160.518 255.571 160.957 255.485 161.399 255.49C162.32 255.501 163.203 255.859 163.87 256.493C164.538 257.128 164.941 257.991 164.999 258.91Z" fill="#263238"/>
<path d="M175.529 258.91C175.558 259.351 175.496 259.794 175.345 260.21C175.195 260.626 174.961 261.007 174.656 261.328C174.352 261.649 173.985 261.904 173.578 262.076C173.17 262.249 172.732 262.335 172.289 262.33C171.369 262.321 170.486 261.963 169.819 261.328C169.153 260.693 168.752 259.829 168.699 258.91C168.67 258.469 168.733 258.026 168.883 257.61C169.033 257.194 169.268 256.813 169.572 256.492C169.876 256.171 170.244 255.916 170.651 255.744C171.058 255.571 171.497 255.485 171.939 255.49C172.86 255.499 173.743 255.857 174.409 256.492C175.076 257.127 175.476 257.991 175.529 258.91Z" fill="#263238"/>
<path d="M186 258.91C186.029 259.351 185.966 259.794 185.816 260.21C185.666 260.626 185.431 261.007 185.127 261.328C184.823 261.649 184.455 261.904 184.048 262.076C183.64 262.249 183.202 262.335 182.76 262.33C181.839 262.319 180.956 261.961 180.288 261.327C179.621 260.692 179.218 259.829 179.16 258.91C179.132 258.468 179.196 258.025 179.347 257.609C179.499 257.193 179.734 256.813 180.039 256.492C180.344 256.171 180.712 255.916 181.12 255.744C181.528 255.571 181.967 255.485 182.41 255.49C183.329 255.501 184.211 255.86 184.877 256.494C185.543 257.129 185.944 257.992 186 258.91Z" fill="#263238"/>
<path d="M196.549 258.91C196.577 259.351 196.513 259.793 196.362 260.208C196.212 260.624 195.977 261.004 195.673 261.325C195.369 261.645 195.002 261.9 194.596 262.073C194.189 262.246 193.751 262.334 193.309 262.33C192.389 262.319 191.506 261.961 190.838 261.327C190.171 260.692 189.767 259.829 189.709 258.91C189.682 258.469 189.745 258.027 189.896 257.612C190.047 257.196 190.282 256.816 190.586 256.495C190.889 256.175 191.256 255.92 191.663 255.747C192.07 255.574 192.507 255.486 192.949 255.49C193.87 255.501 194.753 255.859 195.421 256.493C196.088 257.128 196.491 257.991 196.549 258.91Z" fill="#263238"/>
<path d="M166.769 292.75C166.798 293.191 166.735 293.634 166.585 294.05C166.435 294.466 166.201 294.847 165.896 295.168C165.592 295.489 165.225 295.744 164.817 295.916C164.41 296.089 163.971 296.175 163.529 296.17C162.608 296.159 161.726 295.801 161.058 295.166C160.39 294.532 159.987 293.669 159.929 292.75C159.902 292.308 159.965 291.865 160.117 291.449C160.268 291.033 160.504 290.653 160.809 290.332C161.114 290.011 161.482 289.756 161.889 289.584C162.297 289.411 162.736 289.325 163.179 289.33C164.099 289.341 164.98 289.7 165.646 290.334C166.312 290.969 166.714 291.832 166.769 292.75Z" fill="#263238"/>
<path d="M177.28 292.75C177.307 293.191 177.243 293.633 177.093 294.048C176.942 294.464 176.707 294.844 176.403 295.165C176.099 295.485 175.733 295.74 175.326 295.913C174.919 296.086 174.481 296.174 174.039 296.17C173.119 296.159 172.236 295.801 171.568 295.167C170.901 294.532 170.497 293.669 170.44 292.75C170.411 292.309 170.473 291.866 170.623 291.45C170.774 291.034 171.008 290.653 171.312 290.332C171.617 290.011 171.984 289.756 172.391 289.584C172.799 289.411 173.237 289.325 173.679 289.33C174.6 289.341 175.483 289.699 176.151 290.333C176.818 290.968 177.222 291.831 177.28 292.75Z" fill="#263238"/>
<path d="M187.789 292.75C187.817 293.192 187.753 293.635 187.602 294.051C187.45 294.467 187.215 294.847 186.91 295.168C186.605 295.489 186.237 295.744 185.829 295.916C185.421 296.089 184.982 296.175 184.539 296.17C183.619 296.161 182.736 295.803 182.069 295.168C181.403 294.533 181.002 293.669 180.949 292.75C180.92 292.309 180.983 291.866 181.133 291.45C181.283 291.034 181.518 290.653 181.822 290.332C182.126 290.011 182.494 289.756 182.901 289.584C183.308 289.411 183.747 289.325 184.189 289.33C185.11 289.341 185.993 289.699 186.66 290.333C187.328 290.968 187.731 291.831 187.789 292.75Z" fill="#263238"/>
<path d="M198.29 292.75C198.319 293.191 198.256 293.634 198.106 294.05C197.956 294.466 197.721 294.847 197.417 295.168C197.113 295.489 196.745 295.744 196.338 295.916C195.931 296.089 195.492 296.175 195.05 296.17C194.129 296.159 193.246 295.801 192.578 295.166C191.911 294.532 191.508 293.669 191.45 292.75C191.422 292.308 191.486 291.865 191.637 291.449C191.789 291.033 192.024 290.653 192.329 290.332C192.634 290.011 193.002 289.756 193.41 289.584C193.818 289.411 194.257 289.325 194.7 289.33C195.62 289.339 196.503 289.697 197.169 290.332C197.836 290.967 198.236 291.831 198.29 292.75Z" fill="#263238"/>
<path d="M208.799 292.75C208.828 293.191 208.766 293.634 208.616 294.05C208.465 294.466 208.231 294.847 207.927 295.168C207.622 295.489 207.255 295.744 206.848 295.916C206.44 296.089 206.002 296.175 205.559 296.17C204.639 296.159 203.756 295.801 203.088 295.167C202.421 294.532 202.017 293.669 201.959 292.75C201.932 292.309 201.995 291.867 202.146 291.452C202.297 291.036 202.532 290.656 202.836 290.335C203.139 290.015 203.506 289.76 203.913 289.587C204.32 289.414 204.757 289.326 205.199 289.33C206.12 289.341 207.003 289.699 207.671 290.334C208.338 290.968 208.741 291.831 208.799 292.75Z" fill="#263238"/>
<path d="M219.31 292.75C219.337 293.192 219.273 293.635 219.122 294.051C218.971 294.467 218.735 294.847 218.43 295.168C218.125 295.489 217.757 295.744 217.349 295.916C216.942 296.089 216.503 296.175 216.06 296.17C215.14 296.159 214.258 295.8 213.592 295.166C212.926 294.531 212.525 293.668 212.47 292.75C212.441 292.309 212.503 291.866 212.654 291.45C212.804 291.034 213.038 290.653 213.343 290.332C213.647 290.011 214.014 289.756 214.421 289.584C214.829 289.411 215.267 289.325 215.71 289.33C216.631 289.341 217.513 289.699 218.181 290.333C218.849 290.968 219.252 291.831 219.31 292.75Z" fill="#263238"/>
</svg>
