<svg width="500" height="500" viewBox="0 0 500 500" fill="none" xmlns="http://www.w3.org/2000/svg">
<path d="M104.74 442C185.31 484.47 315.94 484.47 396.51 442C477.08 399.53 477.09 330.69 396.51 288.23C315.93 245.77 185.31 245.76 104.73 288.23C24.1498 330.7 24.1598 399.51 104.74 442Z" fill="#F5F5F5"/>
<path d="M74.8496 386.33L74.0896 385.89C73.4505 385.474 72.9182 384.913 72.536 384.253C72.1538 383.592 71.9324 382.852 71.8896 382.09V125.83C71.9332 125.067 72.1549 124.325 72.537 123.664C72.919 123.002 73.4508 122.439 74.0896 122.02L239.21 26.7C239.892 26.3547 240.645 26.1747 241.41 26.1747C242.174 26.1747 242.928 26.3547 243.61 26.7L244.36 27.14C245.001 27.5567 245.534 28.119 245.917 28.7812C246.299 29.4433 246.519 30.1865 246.56 30.95V287.2C246.519 287.964 246.299 288.707 245.917 289.369C245.534 290.031 245.001 290.593 244.36 291.01L79.2496 386.33C78.5677 386.675 77.814 386.855 77.0497 386.855C76.2853 386.855 75.5316 386.675 74.8496 386.33Z" fill="#005C8A"/>
<path opacity="0.4" d="M246.54 30.6C246.39 29.46 245.47 29.04 244.37 29.67L79.24 125C78.5936 125.407 78.0605 125.972 77.69 126.64L72.54 123.64C72.9153 122.972 73.4516 122.408 74.1 122L239.21 26.7C239.892 26.3547 240.646 26.1747 241.41 26.1747C242.174 26.1747 242.928 26.3547 243.61 26.7L244.37 27.14C244.955 27.5315 245.45 28.0421 245.824 28.6383C246.198 29.2346 246.442 29.903 246.54 30.6Z" fill="white"/>
<path opacity="0.1" d="M78.8799 386.5C78.2389 386.755 77.5511 386.872 76.8617 386.843C76.1723 386.814 75.4969 386.639 74.8799 386.33L74.1099 385.89C73.4707 385.472 72.9392 384.909 72.5586 384.247C72.1781 383.585 71.9592 382.843 71.9199 382.08V125.83C71.9431 125.067 72.1636 124.323 72.5599 123.67L77.7099 126.67C77.3013 127.311 77.0574 128.042 76.9999 128.8V385.06C76.9999 386.32 77.8399 386.91 78.8799 386.5Z" fill="black"/>
<path d="M96.5196 293.65L95.7596 293.21C95.1204 292.794 94.5882 292.233 94.206 291.573C93.8238 290.912 93.6023 290.172 93.5596 289.41V243.35C93.6024 242.587 93.8237 241.845 94.2059 241.183C94.588 240.521 95.1202 239.958 95.7596 239.54L245.67 152.91C246.35 152.565 247.102 152.385 247.865 152.385C248.627 152.385 249.379 152.565 250.06 152.91L250.82 153.35C251.461 153.767 251.994 154.329 252.376 154.991C252.759 155.653 252.979 156.396 253.02 157.16V203.22C252.979 203.982 252.759 204.724 252.376 205.384C251.994 206.045 251.46 206.605 250.82 207.02L100.92 293.65C100.238 293.995 99.484 294.175 98.7196 294.175C97.9552 294.175 97.2015 293.995 96.5196 293.65Z" fill="#EBEBEB"/>
<path d="M253 156.81C252.85 155.67 251.93 155.25 250.82 155.88L100.91 242.52C100.264 242.927 99.7304 243.492 99.36 244.16L94.21 241.16C94.5807 240.486 95.1177 239.918 95.77 239.51L245.67 152.88C246.35 152.535 247.102 152.355 247.865 152.355C248.628 152.355 249.38 152.535 250.06 152.88L250.82 153.32C251.413 153.71 251.915 154.224 252.292 154.827C252.668 155.429 252.909 156.106 253 156.81Z" fill="#FAFAFA"/>
<path d="M100.539 293.83C99.8977 294.085 99.2094 294.201 98.5197 294.17C97.8301 294.139 97.155 293.962 96.5391 293.65L95.7591 293.22C95.1245 292.798 94.597 292.234 94.2186 291.573C93.8402 290.911 93.6212 290.171 93.5791 289.41V243.35C93.6023 242.587 93.8228 241.843 94.2191 241.19L99.3691 244.19C98.9769 244.845 98.7536 245.587 98.7191 246.35V292.42C98.7091 293.64 99.5091 294.23 100.539 293.83Z" fill="#E0E0E0"/>
<path d="M122.11 239.43C130.66 234.49 137.59 238.33 137.59 248.01C137.59 257.69 130.65 269.45 122.09 274.28C113.53 279.11 106.6 275.28 106.6 265.7C106.6 256.12 113.56 244.37 122.11 239.43Z" fill="#005C8A"/>
<path d="M96.5196 356.07L95.7596 355.63C95.1204 355.214 94.5882 354.653 94.206 353.993C93.8238 353.332 93.6023 352.592 93.5596 351.83V305.77C93.6024 305.007 93.8237 304.265 94.2059 303.603C94.588 302.941 95.1202 302.378 95.7596 301.96L245.67 215.33C246.35 214.985 247.102 214.805 247.865 214.805C248.627 214.805 249.379 214.985 250.06 215.33L250.82 215.77C251.461 216.186 251.995 216.748 252.378 217.411C252.76 218.073 252.98 218.816 253.02 219.58V265.64C252.979 266.402 252.759 267.144 252.376 267.804C251.994 268.465 251.46 269.025 250.82 269.44L100.92 356.07C100.238 356.415 99.484 356.595 98.7196 356.595C97.9552 356.595 97.2015 356.415 96.5196 356.07Z" fill="#EBEBEB"/>
<path d="M253 219.22C252.85 218.08 251.93 217.67 250.82 218.3L100.91 304.94C100.266 305.346 99.7334 305.907 99.36 306.57L94.21 303.57C94.5891 302.923 95.1258 302.383 95.77 302L245.67 215.37C246.35 215.025 247.102 214.845 247.865 214.845C248.628 214.845 249.38 215.025 250.06 215.37L250.82 215.81C251.405 216.191 251.902 216.692 252.278 217.28C252.654 217.868 252.9 218.529 253 219.22Z" fill="#FAFAFA"/>
<path d="M100.539 356.24C99.8984 356.497 99.2104 356.614 98.5208 356.585C97.8312 356.556 97.1557 356.38 96.5391 356.07L95.7591 355.63C95.1229 355.21 94.5941 354.646 94.2155 353.985C93.8369 353.323 93.6189 352.581 93.5791 351.82V305.77C93.6009 305.007 93.8215 304.262 94.2191 303.61L99.3691 306.61C98.978 307.269 98.7548 308.014 98.7191 308.78V354.85C98.7091 356.06 99.5091 356.65 100.539 356.24Z" fill="#E0E0E0"/>
<path d="M122.11 301.85C130.66 296.91 137.59 300.75 137.59 310.43C137.59 320.11 130.65 331.87 122.09 336.7C113.53 341.53 106.6 337.7 106.6 328.12C106.6 318.54 113.56 306.78 122.11 301.85Z" fill="#005C8A"/>
<path d="M96.5196 189.27L95.7596 188.83C95.1202 188.412 94.588 187.849 94.2059 187.187C93.8237 186.525 93.6024 185.783 93.5596 185.02V139C93.6023 138.238 93.8238 137.498 94.206 136.837C94.5882 136.177 95.1204 135.616 95.7596 135.2L245.67 48.53C246.35 48.1848 247.102 48.0049 247.865 48.0049C248.627 48.0049 249.379 48.1848 250.06 48.53L250.82 48.97C251.46 49.3845 251.994 49.945 252.376 50.6055C252.759 51.2661 252.979 52.0078 253.02 52.77V98.83C252.979 99.5935 252.759 100.337 252.376 100.999C251.994 101.661 251.461 102.223 250.82 102.64L100.92 189.27C100.238 189.615 99.484 189.795 98.7196 189.795C97.9552 189.795 97.2015 189.615 96.5196 189.27Z" fill="#EBEBEB"/>
<path d="M253 52.42C252.85 51.28 251.93 50.87 250.82 51.5L100.91 138.14C100.262 138.541 99.7278 139.102 99.36 139.77L94.21 136.77C94.5784 136.097 95.1161 135.532 95.77 135.13L245.67 48.5C246.35 48.1548 247.102 47.9749 247.865 47.9749C248.628 47.9749 249.38 48.1548 250.06 48.5L250.82 48.94C251.413 49.3283 251.915 49.8404 252.291 50.4411C252.668 51.0419 252.909 51.7169 253 52.42Z" fill="#FAFAFA"/>
<path d="M100.539 189.44C99.8986 189.697 99.2107 189.814 98.5211 189.785C97.8314 189.756 97.1559 189.58 96.5393 189.27L95.7593 188.83C95.1186 188.409 94.5863 187.843 94.2057 187.177C93.8252 186.512 93.6071 185.766 93.5693 185V139C93.5908 138.233 93.8114 137.486 94.2093 136.83L99.3593 139.83C98.9667 140.489 98.7434 141.234 98.7093 142V188C98.7093 189.26 99.5093 189.84 100.539 189.44Z" fill="#E0E0E0"/>
<path d="M122.11 135.05C130.66 130.11 137.59 133.95 137.59 143.62C137.59 153.29 130.65 165.06 122.09 169.9C113.53 174.74 106.6 170.9 106.6 161.32C106.6 151.74 113.56 140 122.11 135.05Z" fill="#005C8A"/>
<path d="M107.06 247.75L106.3 247.31C105.659 246.893 105.125 246.331 104.743 245.669C104.36 245.007 104.14 244.263 104.1 243.5V197.44C104.142 196.677 104.363 195.934 104.745 195.272C105.127 194.61 105.66 194.048 106.3 193.63L256.2 107C256.882 106.655 257.635 106.475 258.4 106.475C259.164 106.475 259.918 106.655 260.6 107L261.36 107.43C261.998 107.849 262.53 108.412 262.912 109.074C263.294 109.735 263.516 110.477 263.56 111.24V157.3C263.517 158.063 263.295 158.805 262.913 159.467C262.531 160.129 261.999 160.692 261.36 161.11L111.45 247.75C110.769 248.095 110.017 248.275 109.255 248.275C108.492 248.275 107.74 248.095 107.06 247.75Z" fill="#37474F"/>
<path d="M263.54 110.9C263.39 109.76 262.47 109.34 261.36 109.98L111.45 196.62C110.801 197.023 110.265 197.584 109.89 198.25L104.75 195.25C105.117 194.577 105.651 194.009 106.3 193.6L256.2 107C256.882 106.655 257.636 106.475 258.4 106.475C259.164 106.475 259.918 106.655 260.6 107L261.36 107.43C261.951 107.818 262.451 108.329 262.828 108.928C263.204 109.526 263.447 110.199 263.54 110.9Z" fill="#455A64"/>
<path d="M111.079 247.92C110.438 248.175 109.75 248.292 109.061 248.263C108.372 248.234 107.696 248.059 107.079 247.75L106.309 247.31C105.671 246.891 105.14 246.328 104.76 245.666C104.38 245.004 104.16 244.262 104.119 243.5V197.44C104.146 196.676 104.37 195.932 104.769 195.28L109.909 198.28C109.52 198.936 109.3 199.678 109.269 200.44V246.51C109.249 247.73 109.999 248.32 111.079 247.92Z" fill="#263238"/>
<path d="M132.65 193.52C141.2 188.59 148.13 192.43 148.13 202.1C148.13 211.77 141.19 223.54 132.63 228.38C124.07 233.22 117.13 229.38 117.14 219.8C117.15 210.22 124.1 198.46 132.65 193.52Z" fill="#F5F5F5"/>
<path d="M133 221.35C132.729 221.555 132.403 221.674 132.064 221.69C131.725 221.706 131.388 221.619 131.1 221.44L124.3 216.3C123.39 215.61 123.5 213.72 124.55 212.06C125.6 210.4 127.19 209.62 128.09 210.31L132.83 213.9L146 185.61C146.82 183.84 148.39 182.61 149.51 182.96C150.63 183.31 150.87 184.96 150.04 186.7L135 219C134.584 219.929 133.915 220.723 133.07 221.29L133 221.35Z" fill="#005C8A"/>
<path d="M263.52 179.3L259.17 176.79C257.28 175.71 254.97 176.79 253.75 177.53L251 176C247.71 174 243.13 178.17 242.11 179.16L240.93 178.49C237.44 176.39 231.09 182.02 231.09 182.02V161L233.85 159.67L229.46 157.13C228.831 156.851 228.139 156.742 227.455 156.814C226.771 156.886 226.117 157.136 225.56 157.54C223.935 158.598 222.583 160.024 221.614 161.702C220.644 163.381 220.084 165.264 219.98 167.2V215.77C215.98 212.77 211.7 210.97 207.98 211.64C205.016 212.333 202.424 214.118 200.72 216.64C198.88 219.9 201.92 221.94 205.84 226.42C209.76 230.9 213.16 236.22 216.7 239.52C218.447 241.29 220.522 242.703 222.81 243.68V250L227.11 252.49L255.59 231.08V224.75C255.59 224.75 259.65 208.53 260.95 201.75C262.2 195.23 263.35 184.82 261.2 179.42L263.53 179.26L263.52 179.3Z" fill="#005C8A"/>
<path opacity="0.4" d="M263.52 179.3L259.17 176.79C257.28 175.71 254.97 176.79 253.75 177.53L251 176C247.71 174 243.13 178.17 242.11 179.16L240.93 178.49C237.44 176.39 231.09 182.02 231.09 182.02V161L233.85 159.67L229.46 157.13C228.831 156.851 228.139 156.742 227.455 156.814C226.771 156.886 226.117 157.136 225.56 157.54C223.935 158.598 222.583 160.024 221.614 161.702C220.644 163.381 220.084 165.264 219.98 167.2V215.77C215.98 212.77 211.7 210.97 207.98 211.64C205.016 212.333 202.424 214.118 200.72 216.64C198.88 219.9 201.92 221.94 205.84 226.42C209.76 230.9 213.16 236.22 216.7 239.52C218.447 241.29 220.522 242.703 222.81 243.68V250L227.11 252.49L255.59 231.08V224.75C255.59 224.75 259.65 208.53 260.95 201.75C262.2 195.23 263.35 184.82 261.2 179.42L263.53 179.26L263.52 179.3Z" fill="white"/>
<path d="M231.41 235.12L209.87 222.69L200.44 217.24C199.24 220.18 202.15 222.24 205.83 226.45C209.72 230.9 213.15 236.25 216.69 239.55C218.437 241.32 220.513 242.733 222.8 243.71V250L227.1 252.49L233.39 247.76C232.58 242.42 231.41 235.12 231.41 235.12Z" fill="#005C8A"/>
<path d="M224.29 169.71L219.99 167.22V218.17L224.29 218.28V169.71Z" fill="#005C8A"/>
<path d="M258.08 182.57L261.42 180.11C261.34 179.89 261.28 179.67 261.19 179.46L262.41 179.38L259.73 179.26L255.26 176.79C254.738 177 254.233 177.25 253.75 177.54L255.15 178.35L258.08 182.57Z" fill="#005C8A"/>
<path d="M246.25 181.84L249.38 179.46L245.06 176.84C244.018 177.51 243.043 178.28 242.15 179.14L245.15 180.88L246.25 181.84Z" fill="#005C8A"/>
<path d="M239.711 181.61L235.431 179.11L235.451 179.07V184.48L240.431 182.66L239.711 181.61Z" fill="#005C8A"/>
<g opacity="0.15">
<path d="M231.41 235.12L209.87 222.69L200.44 217.24C199.24 220.18 202.15 222.24 205.83 226.45C209.72 230.9 213.15 236.25 216.69 239.55C218.437 241.32 220.513 242.733 222.8 243.71V250L227.1 252.49L233.39 247.76C232.58 242.42 231.41 235.12 231.41 235.12Z" fill="black"/>
<path d="M224.29 169.71L219.99 167.22V218.17L224.29 218.28V169.71Z" fill="black"/>
<path d="M258.08 182.57L261.42 180.11C261.34 179.89 261.28 179.67 261.19 179.46L262.41 179.38L259.73 179.26L255.26 176.79C254.738 177 254.233 177.25 253.75 177.54L255.15 178.35L258.08 182.57Z" fill="black"/>
<path d="M246.25 181.84L249.38 179.46L245.06 176.84C244.018 177.51 243.043 178.28 242.15 179.14L245.15 180.88L246.25 181.84Z" fill="black"/>
<path d="M239.711 181.61L235.431 179.11L235.451 179.07V184.48L240.431 182.66L239.711 181.61Z" fill="black"/>
</g>
<path d="M227.1 252.53V246.2C224.814 245.209 222.742 243.783 221 242C217.46 238.7 214 233.34 210.14 228.9C206.28 224.46 203.14 222.37 205.02 219.12C206.724 216.598 209.317 214.813 212.28 214.12C216.02 213.45 220.28 215.28 224.28 218.25V169.71C224.384 167.775 224.942 165.892 225.91 164.214C226.878 162.535 228.228 161.109 229.85 160.05C232.93 158.27 235.43 159.71 235.43 163.27V184.48C235.43 184.48 243.12 177.66 246.22 181.84C246.22 181.84 253.78 173.93 257.22 180.61C257.22 180.61 262.76 176.14 265.22 181.33C267.68 186.52 266.52 197.5 265.22 204.28C263.92 211.06 259.85 227.28 259.85 227.28V233.61L227.1 252.53Z" fill="#005C8A"/>
<path d="M235.45 193.59C235.45 193.59 236.15 183.91 239.71 181.59H239.58C238.107 182.384 236.722 183.333 235.45 184.42V184.24C235.437 184.268 235.43 184.299 235.43 184.33C235.43 184.361 235.437 184.392 235.45 184.42V193.59Z" fill="#455A64"/>
<path d="M246.25 181.84V190.7C246.25 190.7 247.25 181.59 249.25 179.39C248.163 180.094 247.157 180.916 246.25 181.84Z" fill="#455A64"/>
<path d="M257.21 180.61V189.5C257.21 189.5 257.75 180.55 259.68 179.23C258.794 179.567 257.961 180.032 257.21 180.61Z" fill="#455A64"/>
<path d="M225.54 151.44C224.84 151.84 224.28 151.61 224.28 150.91V143.91C224.317 143.501 224.451 143.106 224.67 142.759C224.889 142.411 225.187 142.12 225.54 141.91C226.23 141.51 226.79 141.75 226.79 142.44V149.44C226.755 149.849 226.623 150.243 226.406 150.591C226.189 150.938 225.892 151.229 225.54 151.44Z" fill="#EBEBEB"/>
<path d="M215 162.53C214.51 163.37 213.72 163.83 213.23 163.53L209.16 161.18C208.67 160.9 208.67 159.98 209.16 159.18C209.65 158.33 210.44 157.87 210.93 158.18L215 160.53C215.53 160.76 215.53 161.68 215 162.53Z" fill="#EBEBEB"/>
<path d="M210.691 177.06V177.26C210.648 177.695 210.503 178.113 210.269 178.481C210.034 178.85 209.716 179.157 209.341 179.38L203.781 182.59C203.041 183.02 202.431 182.77 202.431 182.02V181.82C202.476 181.386 202.621 180.969 202.855 180.601C203.09 180.233 203.407 179.924 203.781 179.7L209.341 176.49C210.091 176.06 210.691 176.31 210.691 177.06Z" fill="#EBEBEB"/>
<path d="M240.38 160.12V159.92C240.421 159.484 240.565 159.063 240.799 158.693C241.034 158.323 241.353 158.013 241.73 157.79L247.29 154.58C248.03 154.15 248.64 154.41 248.64 155.15V155.35C248.595 155.784 248.449 156.201 248.215 156.569C247.981 156.937 247.664 157.246 247.29 157.47L241.73 160.68C241 161.11 240.38 160.86 240.38 160.12Z" fill="#EBEBEB"/>
<path d="M236 150.4C235.51 150.12 235.51 149.21 236 148.4L240.07 141.4C240.56 140.55 241.35 140.09 241.84 140.4C242.33 140.69 242.33 141.6 241.84 142.45L237.77 149.45C237.32 150.23 236.52 150.69 236 150.4Z" fill="#EBEBEB"/>
</svg>
